<svg id="icon-v" xmlns="http://www.w3.org/2000/svg" width="48" height="48" viewBox="0 0 48 48">
  <rect id="矩形_106968" data-name="矩形 106968" width="48" height="48" fill="#fff" opacity="0"/>
  <g id="XMLID_717_" transform="translate(2.681 5.362)">
    <g id="XMLID_72_" transform="translate(0.67 26.809)">
      <path id="路径_170995" data-name="路径 170995" d="M41.213,52.043H2.34A1.34,1.34,0,0,1,1,50.7V44H42.553v6.7A1.34,1.34,0,0,1,41.213,52.043Z" transform="translate(-1 -44)" fill="#9ac14e"/>
    </g>
    <g id="XMLID_1000_" transform="translate(11.394 8.043)">
      <path id="路径_170996" data-name="路径 170996" d="M30.4,22.7,17,29.4V16Z" transform="translate(-17 -16)" fill="#9ac14e"/>
    </g>
    <g id="XMLID_538_">
      <path id="路径_170997" data-name="路径 170997" d="M40.883,41.532H2.011A2.013,2.013,0,0,1,0,39.521V6.011A2.013,2.013,0,0,1,2.011,4H40.883a2.013,2.013,0,0,1,2.011,2.011V39.521A2.013,2.013,0,0,1,40.883,41.532ZM2.011,5.34a.671.671,0,0,0-.67.67V39.521a.671.671,0,0,0,.67.67H40.883a.671.671,0,0,0,.67-.67V6.011a.671.671,0,0,0-.67-.67Z" transform="translate(0 -4)" fill="#212529"/>
    </g>
    <g id="XMLID_539_" transform="translate(4.021 30.16)">
      <path id="路径_170998" data-name="路径 170998" d="M8.681,54.362a2.681,2.681,0,1,1,2.681-2.681A2.684,2.684,0,0,1,8.681,54.362Zm0-4.021a1.34,1.34,0,1,0,1.34,1.34A1.342,1.342,0,0,0,8.681,50.34Z" transform="translate(-6 -49)" fill="#212529"/>
    </g>
    <g id="XMLID_553_" transform="translate(0 28.149)">
      <path id="路径_170999" data-name="路径 170999" d="M42.223,47.34H.67A.67.67,0,0,1,.67,46H42.223a.67.67,0,0,1,0,1.34Z" transform="translate(0 -46)" fill="#212529"/>
    </g>
    <g id="XMLID_145_" transform="translate(8.043 32.17)">
      <path id="路径_171000" data-name="路径 171000" d="M46.181,53.34H12.67a.67.67,0,1,1,0-1.34H46.181a.67.67,0,1,1,0,1.34Z" transform="translate(-12 -52)" fill="#212529"/>
    </g>
    <g id="XMLID_144_" transform="translate(0 32.17)">
      <path id="路径_171001" data-name="路径 171001" d="M4.691,53.34H.67A.67.67,0,1,1,.67,52H4.691a.67.67,0,1,1,0,1.34Z" transform="translate(0 -52)" fill="#212529"/>
    </g>
    <g id="XMLID_131_" transform="translate(14.074 7.373)">
      <path id="路径_171002" data-name="路径 171002" d="M21.67,29.745a.671.671,0,0,1-.67-.67V15.67a.67.67,0,0,1,.97-.6l13.4,6.7a.67.67,0,0,1,0,1.2l-13.4,6.7A.672.672,0,0,1,21.67,29.745Zm.67-12.99V27.99l11.235-5.618Z" transform="translate(-21 -15)" fill="#212529"/>
    </g>
    <g id="XMLID_136_" transform="translate(2.681 3.359)">
      <path id="路径_171003" data-name="路径 171003" d="M4.67,10.345a.673.673,0,1,1,.67-.67.664.664,0,0,1-.67.67Z" transform="translate(-4 -9.012)" fill="#212529"/>
    </g>
    <g id="XMLID_142_" transform="translate(2.681 6.04)">
      <path id="路径_171004" data-name="路径 171004" d="M4.67,14.345a.673.673,0,1,1,.67-.67.664.664,0,0,1-.67.67Z" transform="translate(-4 -13.012)" fill="#212529"/>
    </g>
    <g id="XMLID_147_" transform="translate(2.681 8.721)">
      <path id="路径_171005" data-name="路径 171005" d="M4.67,18.345a.664.664,0,0,1-.67-.67.689.689,0,0,1,.194-.476.673.673,0,1,1,.476,1.146Z" transform="translate(-4 -17.012)" fill="#212529"/>
    </g>
    <g id="XMLID_149_" transform="translate(2.681 11.402)">
      <path id="路径_171006" data-name="路径 171006" d="M4.67,22.345A.672.672,0,1,1,5.146,21.2a.692.692,0,0,1,.194.476.664.664,0,0,1-.67.67Z" transform="translate(-4 -21.012)" fill="#212529"/>
    </g>
    <g id="XMLID_150_" transform="translate(2.681 14.083)">
      <path id="路径_171007" data-name="路径 171007" d="M4.67,26.345a.692.692,0,0,1-.476-.194.673.673,0,1,1,.952-.952.67.67,0,0,1-.476,1.146Z" transform="translate(-4 -25.012)" fill="#212529"/>
    </g>
    <g id="XMLID_151_" transform="translate(2.681 16.764)">
      <path id="路径_171008" data-name="路径 171008" d="M4.67,30.345a.705.705,0,0,1-.476-.194.68.68,0,0,1,0-.952.673.673,0,0,1,.952.952A.694.694,0,0,1,4.67,30.345Z" transform="translate(-4 -29.012)" fill="#212529"/>
    </g>
    <g id="XMLID_152_" transform="translate(2.681 19.445)">
      <path id="路径_171009" data-name="路径 171009" d="M4.67,34.345A.672.672,0,1,1,5.146,33.2a.692.692,0,0,1,.194.476.664.664,0,0,1-.67.67Z" transform="translate(-4 -33.012)" fill="#212529"/>
    </g>
    <g id="XMLID_153_" transform="translate(2.681 22.125)">
      <path id="路径_171010" data-name="路径 171010" d="M4.67,38.345a.705.705,0,0,1-.476-.194.68.68,0,0,1,0-.952.673.673,0,1,1,.476,1.146Z" transform="translate(-4 -37.012)" fill="#212529"/>
    </g>
    <g id="XMLID_154_" transform="translate(2.681 24.806)">
      <path id="路径_171011" data-name="路径 171011" d="M4.67,42.345a.675.675,0,0,1-.67-.67A.67.67,0,0,1,5.146,41.2a.68.68,0,0,1,0,.952A.694.694,0,0,1,4.67,42.345Z" transform="translate(-4 -41.012)" fill="#212529"/>
    </g>
    <g id="XMLID_379_" transform="translate(5.362 3.359)">
      <path id="路径_171012" data-name="路径 171012" d="M8.67,10.345a.664.664,0,1,1,.476-.194A.705.705,0,0,1,8.67,10.345Z" transform="translate(-8 -9.012)" fill="#212529"/>
    </g>
    <g id="XMLID_372_" transform="translate(5.362 6.04)">
      <path id="路径_171013" data-name="路径 171013" d="M8.67,14.345a.664.664,0,1,1,.476-.194A.705.705,0,0,1,8.67,14.345Z" transform="translate(-8 -13.012)" fill="#212529"/>
    </g>
    <g id="XMLID_371_" transform="translate(5.362 8.721)">
      <path id="路径_171014" data-name="路径 171014" d="M8.67,18.345a.664.664,0,0,1-.67-.67.689.689,0,0,1,.194-.476.673.673,0,1,1,.476,1.146Z" transform="translate(-8 -17.012)" fill="#212529"/>
    </g>
    <g id="XMLID_370_" transform="translate(5.362 11.402)">
      <path id="路径_171015" data-name="路径 171015" d="M8.67,22.345a.705.705,0,0,1-.476-.194.68.68,0,0,1,0-.952.7.7,0,0,1,.952,0,.68.68,0,0,1,0,.952A.707.707,0,0,1,8.67,22.345Z" transform="translate(-8 -21.012)" fill="#212529"/>
    </g>
    <g id="XMLID_367_" transform="translate(5.362 14.083)">
      <path id="路径_171016" data-name="路径 171016" d="M8.67,26.345a.664.664,0,1,1,.476-.194A.694.694,0,0,1,8.67,26.345Z" transform="translate(-8 -25.012)" fill="#212529"/>
    </g>
    <g id="XMLID_362_" transform="translate(5.362 16.764)">
      <path id="路径_171017" data-name="路径 171017" d="M8.67,30.345a.692.692,0,0,1-.476-.194.68.68,0,1,1,.476.194Z" transform="translate(-8 -29.012)" fill="#212529"/>
    </g>
    <g id="XMLID_244_" transform="translate(5.362 19.447)">
      <path id="路径_171018" data-name="路径 171018" d="M8.67,34.346a.664.664,0,0,1-.67-.67.689.689,0,0,1,.194-.476.673.673,0,1,1,.476,1.146Z" transform="translate(-8 -33.016)" fill="#212529"/>
    </g>
    <g id="XMLID_163_" transform="translate(5.362 22.125)">
      <path id="路径_171019" data-name="路径 171019" d="M8.67,38.345a.664.664,0,1,1,.476-.194A.705.705,0,0,1,8.67,38.345Z" transform="translate(-8 -37.012)" fill="#212529"/>
    </g>
    <g id="XMLID_380_" transform="translate(5.362 24.806)">
      <path id="路径_171020" data-name="路径 171020" d="M8.67,42.345a.675.675,0,0,1-.67-.67.673.673,0,1,1,.67.67Z" transform="translate(-8 -41.012)" fill="#212529"/>
    </g>
    <g id="XMLID_403_" transform="translate(8.043 3.36)">
      <path id="路径_171021" data-name="路径 171021" d="M12.67,10.345a.705.705,0,0,1-.476-.194A.691.691,0,0,1,12,9.675a.667.667,0,0,1,.2-.476.687.687,0,0,1,.945.007.677.677,0,0,1,.194.469.664.664,0,0,1-.67.67Z" transform="translate(-12 -9.014)" fill="#212529"/>
    </g>
    <g id="XMLID_401_" transform="translate(8.043 8.721)">
      <path id="路径_171022" data-name="路径 171022" d="M12.67,18.345a.664.664,0,0,1-.67-.67.677.677,0,0,1,.194-.476.7.7,0,0,1,.952,0,.692.692,0,0,1,.194.476.707.707,0,0,1-.194.476A.694.694,0,0,1,12.67,18.345Z" transform="translate(-12 -17.012)" fill="#212529"/>
    </g>
    <g id="XMLID_387_" transform="translate(8.043 14.083)">
      <path id="路径_171023" data-name="路径 171023" d="M12.67,26.345a.692.692,0,0,1-.476-.194.68.68,0,1,1,.476.194Z" transform="translate(-12 -25.012)" fill="#212529"/>
    </g>
    <g id="XMLID_385_" transform="translate(8.043 19.445)">
      <path id="路径_171024" data-name="路径 171024" d="M12.67,34.345a.664.664,0,0,1-.67-.67.689.689,0,0,1,.194-.476.673.673,0,1,1,.476,1.146Z" transform="translate(-12 -33.012)" fill="#212529"/>
    </g>
    <g id="XMLID_384_" transform="translate(8.043 24.806)">
      <path id="路径_171025" data-name="路径 171025" d="M12.67,42.345a.675.675,0,0,1-.67-.67.689.689,0,0,1,.194-.476.7.7,0,0,1,.952,0,.692.692,0,0,1,.194.476.675.675,0,0,1-.67.67Z" transform="translate(-12 -41.012)" fill="#212529"/>
    </g>
    <g id="XMLID_635_" transform="translate(33.511 3.359)">
      <path id="路径_171026" data-name="路径 171026" d="M50.67,10.345a.664.664,0,0,1-.67-.67.689.689,0,0,1,.194-.476.673.673,0,1,1,.476,1.146Z" transform="translate(-50 -9.012)" fill="#212529"/>
    </g>
    <g id="XMLID_593_" transform="translate(33.511 8.721)">
      <path id="路径_171027" data-name="路径 171027" d="M50.67,18.345a.705.705,0,0,1-.476-.194.68.68,0,0,1,0-.952.67.67,0,0,1,1.146.476.694.694,0,0,1-.194.476A.707.707,0,0,1,50.67,18.345Z" transform="translate(-50 -17.012)" fill="#212529"/>
    </g>
    <g id="XMLID_567_" transform="translate(33.511 14.083)">
      <path id="路径_171028" data-name="路径 171028" d="M50.67,26.345a.664.664,0,0,1-.67-.67.689.689,0,0,1,.194-.476.673.673,0,1,1,.476,1.146Z" transform="translate(-50 -25.012)" fill="#212529"/>
    </g>
    <g id="XMLID_565_" transform="translate(33.511 19.445)">
      <path id="路径_171029" data-name="路径 171029" d="M50.67,34.345a.705.705,0,0,1-.476-.194.68.68,0,0,1,0-.952.67.67,0,0,1,1.146.476.694.694,0,0,1-.194.476A.707.707,0,0,1,50.67,34.345Z" transform="translate(-50 -33.012)" fill="#212529"/>
    </g>
    <g id="XMLID_563_" transform="translate(33.511 24.806)">
      <path id="路径_171030" data-name="路径 171030" d="M50.67,42.345a.705.705,0,0,1-.476-.194.68.68,0,0,1,0-.952.673.673,0,1,1,.476,1.146Z" transform="translate(-50 -41.012)" fill="#212529"/>
    </g>
    <g id="XMLID_562_" transform="translate(36.191 3.359)">
      <path id="路径_171031" data-name="路径 171031" d="M54.67,10.345a.675.675,0,0,1-.67-.67.67.67,0,1,1,1.146.476A.694.694,0,0,1,54.67,10.345Z" transform="translate(-54 -9.012)" fill="#212529"/>
    </g>
    <g id="XMLID_561_" transform="translate(36.191 6.04)">
      <path id="路径_171032" data-name="路径 171032" d="M54.67,14.345a.664.664,0,1,1,.476-.194A.705.705,0,0,1,54.67,14.345Z" transform="translate(-54 -13.012)" fill="#212529"/>
    </g>
    <g id="XMLID_560_" transform="translate(36.191 8.721)">
      <path id="路径_171033" data-name="路径 171033" d="M54.67,18.345a.664.664,0,1,1,.476-.194A.705.705,0,0,1,54.67,18.345Z" transform="translate(-54 -17.012)" fill="#212529"/>
    </g>
    <g id="XMLID_559_" transform="translate(36.191 11.402)">
      <path id="路径_171034" data-name="路径 171034" d="M54.67,22.345a.664.664,0,0,1-.67-.67.689.689,0,0,1,.194-.476.7.7,0,0,1,.952,0,.692.692,0,0,1,.194.476.664.664,0,0,1-.67.67Z" transform="translate(-54 -21.012)" fill="#212529"/>
    </g>
    <g id="XMLID_558_" transform="translate(36.191 14.083)">
      <path id="路径_171035" data-name="路径 171035" d="M54.67,26.345a.664.664,0,1,1,.476-.194A.705.705,0,0,1,54.67,26.345Z" transform="translate(-54 -25.012)" fill="#212529"/>
    </g>
    <g id="XMLID_557_" transform="translate(36.191 16.764)">
      <path id="路径_171036" data-name="路径 171036" d="M54.67,30.345a.664.664,0,1,1,.476-.194A.705.705,0,0,1,54.67,30.345Z" transform="translate(-54 -29.012)" fill="#212529"/>
    </g>
    <g id="XMLID_556_" transform="translate(36.191 19.445)">
      <path id="路径_171037" data-name="路径 171037" d="M54.67,34.345a.705.705,0,0,1-.476-.194A.691.691,0,0,1,54,33.674a.67.67,0,1,1,1.34,0,.664.664,0,0,1-.67.67Z" transform="translate(-54 -33.012)" fill="#212529"/>
    </g>
    <g id="XMLID_555_" transform="translate(36.191 22.125)">
      <path id="路径_171038" data-name="路径 171038" d="M54.67,38.345a.664.664,0,1,1,.476-.194A.705.705,0,0,1,54.67,38.345Z" transform="translate(-54 -37.012)" fill="#212529"/>
    </g>
    <g id="XMLID_554_" transform="translate(36.191 24.806)">
      <path id="路径_171039" data-name="路径 171039" d="M54.67,42.345a.664.664,0,1,1,.476-.194A.705.705,0,0,1,54.67,42.345Z" transform="translate(-54 -41.012)" fill="#212529"/>
    </g>
    <g id="XMLID_428_" transform="translate(38.872 3.359)">
      <path id="路径_171040" data-name="路径 171040" d="M58.67,10.345a.664.664,0,0,1-.67-.67.673.673,0,1,1,.67.67Z" transform="translate(-58 -9.012)" fill="#212529"/>
    </g>
    <g id="XMLID_411_" transform="translate(38.872 6.04)">
      <path id="路径_171041" data-name="路径 171041" d="M58.67,14.345a.705.705,0,0,1-.476-.194A.691.691,0,0,1,58,13.674a.673.673,0,1,1,.67.67Z" transform="translate(-58 -13.012)" fill="#212529"/>
    </g>
    <g id="XMLID_410_" transform="translate(38.872 8.721)">
      <path id="路径_171042" data-name="路径 171042" d="M58.67,18.345a.705.705,0,0,1-.476-.194A.691.691,0,0,1,58,17.674a.673.673,0,1,1,.67.67Z" transform="translate(-58 -17.012)" fill="#212529"/>
    </g>
    <g id="XMLID_409_" transform="translate(38.872 11.402)">
      <path id="路径_171043" data-name="路径 171043" d="M58.67,22.345a.705.705,0,0,1-.476-.194A.691.691,0,0,1,58,21.674a.673.673,0,1,1,.67.67Z" transform="translate(-58 -21.012)" fill="#212529"/>
    </g>
    <g id="XMLID_408_" transform="translate(38.872 14.083)">
      <path id="路径_171044" data-name="路径 171044" d="M58.67,26.345a.664.664,0,1,1,.476-.194A.705.705,0,0,1,58.67,26.345Z" transform="translate(-58 -25.012)" fill="#212529"/>
    </g>
    <g id="XMLID_407_" transform="translate(38.872 16.764)">
      <path id="路径_171045" data-name="路径 171045" d="M58.67,30.345a.664.664,0,1,1,.476-.194A.705.705,0,0,1,58.67,30.345Z" transform="translate(-58 -29.012)" fill="#212529"/>
    </g>
    <g id="XMLID_406_" transform="translate(38.872 19.445)">
      <path id="路径_171046" data-name="路径 171046" d="M58.67,34.345a.673.673,0,0,1-.476-1.146.7.7,0,0,1,.952.007.677.677,0,0,1,.194.469.664.664,0,0,1-.67.67Z" transform="translate(-58 -33.014)" fill="#212529"/>
    </g>
    <g id="XMLID_405_" transform="translate(38.872 22.125)">
      <path id="路径_171047" data-name="路径 171047" d="M58.67,38.345a.664.664,0,0,1-.67-.67.689.689,0,0,1,.194-.476.7.7,0,0,1,.952,0,.692.692,0,0,1,.194.476.664.664,0,0,1-.67.67Z" transform="translate(-58 -37.012)" fill="#212529"/>
    </g>
    <g id="XMLID_404_" transform="translate(38.872 24.806)">
      <path id="路径_171048" data-name="路径 171048" d="M58.67,42.345a.664.664,0,0,1-.67-.67.689.689,0,0,1,.194-.476.673.673,0,1,1,.476,1.146Z" transform="translate(-58 -41.012)" fill="#212529"/>
    </g>
  </g>
</svg>
