<svg id="icon-l" xmlns="http://www.w3.org/2000/svg" width="48" height="48" viewBox="0 0 48 48">
  <rect id="矩形_106965" data-name="矩形 106965" width="48" height="48" fill="#fff" opacity="0"/>
  <g id="XMLID_675_" transform="translate(2.681 2.681)">
    <g id="XMLID_994_" transform="translate(13.404 14.742)">
      <path id="路径_171049" data-name="路径 171049" d="M23.279,38.863,36.863,25.279a1.921,1.921,0,0,0,0-2.717h0a1.921,1.921,0,0,0-2.717,0L20.563,36.146a1.921,1.921,0,0,0,0,2.717h0A1.921,1.921,0,0,0,23.279,38.863Z" transform="translate(-20 -22)" fill="#9ac14e"/>
    </g>
    <g id="XMLID_51_" transform="translate(24.128)">
      <path id="路径_171050" data-name="路径 171050" d="M42.718,18.77a6.676,6.676,0,0,1-3-.711.67.67,0,1,1,.6-1.2,5.349,5.349,0,0,0,6.189-1.007l5.341-5.341a5.372,5.372,0,0,0-7.6-7.6L38.914,8.256A5.359,5.359,0,0,0,37.9,14.442a.67.67,0,0,1-1.2.607,6.7,6.7,0,0,1,1.256-7.741l5.341-5.341A6.713,6.713,0,0,1,52.8,11.46L47.459,16.8A6.7,6.7,0,0,1,42.718,18.77Z" transform="translate(-36 -0.004)" fill="#212529"/>
    </g>
    <g id="XMLID_50_" transform="translate(26.809 2.678)">
      <path id="路径_171051" data-name="路径 171051" d="M44.035,17.4a3.914,3.914,0,0,1-.971-.121.67.67,0,1,1,.333-1.3,2.7,2.7,0,0,0,2.537-.709l5.341-5.341a2.687,2.687,0,0,0,0-3.8,2.75,2.75,0,0,0-3.805,0l-5.341,5.341a2.669,2.669,0,0,0-.789,1.9,2.571,2.571,0,0,0,.08.638.67.67,0,0,1-1.3.333A3.914,3.914,0,0,1,40,13.37a4,4,0,0,1,1.182-2.846l5.341-5.341a4.03,4.03,0,1,1,5.7,5.7l-5.34,5.34A4,4,0,0,1,44.035,17.4Z" transform="translate(-40 -4)" fill="#212529"/>
    </g>
    <g id="XMLID_54_" transform="translate(0 24.122)">
      <path id="路径_171052" data-name="路径 171052" d="M6.712,54.762A6.71,6.71,0,0,1,1.966,43.306l5.341-5.341a6.689,6.689,0,0,1,7.738-1.258.67.67,0,1,1-.6,1.2,5.35,5.35,0,0,0-6.189,1.007L2.914,44.254a5.372,5.372,0,0,0,7.6,7.6l5.341-5.341a5.359,5.359,0,0,0,1.009-6.186.67.67,0,0,1,1.2-.607A6.7,6.7,0,0,1,16.8,47.457L11.459,52.8A6.691,6.691,0,0,1,6.712,54.762Z" transform="translate(0 -35.996)" fill="#212529"/>
    </g>
    <g id="XMLID_55_" transform="translate(2.681 26.806)">
      <path id="路径_171053" data-name="路径 171053" d="M8.035,53.4a4.03,4.03,0,0,1-2.853-6.881l5.341-5.341A4,4,0,0,1,13.37,40a3.914,3.914,0,0,1,.971.121.67.67,0,0,1-.333,1.3,2.7,2.7,0,0,0-2.537.709L6.129,47.471a2.687,2.687,0,0,0,0,3.8,2.75,2.75,0,0,0,3.8,0l5.341-5.341a2.679,2.679,0,0,0,.709-2.541.67.67,0,0,1,1.3-.325,4.025,4.025,0,0,1-1.063,3.815l-5.34,5.339A4,4,0,0,1,8.035,53.4Z" transform="translate(-4 -40)" fill="#212529"/>
    </g>
    <g id="XMLID_6_" transform="translate(12.065 12.086)">
      <path id="路径_171054" data-name="路径 171054" d="M20.592,36.778a2.591,2.591,0,0,1-1.832-4.423L32.343,18.771a2.654,2.654,0,0,1,3.665,0,2.594,2.594,0,0,1,0,3.665L22.424,36.019A2.575,2.575,0,0,1,20.592,36.778ZM34.175,19.353a1.243,1.243,0,0,0-.885.366L19.707,33.3a1.253,1.253,0,0,0,0,1.769,1.282,1.282,0,0,0,1.769,0L35.06,21.488a1.251,1.251,0,0,0-.885-2.135Z" transform="translate(-18.002 -18.037)" fill="#212529"/>
    </g>
    <g id="XMLID_59_" transform="translate(13.491 13.488)">
      <path id="路径_171055" data-name="路径 171055" d="M28.085,46.181a17.862,17.862,0,0,1-7.567-1.657.67.67,0,0,1,.564-1.216,16.532,16.532,0,0,0,7,1.533A16.774,16.774,0,0,0,44.841,28.085a16.575,16.575,0,0,0-1.533-7,.67.67,0,0,1,1.217-.562,17.9,17.9,0,0,1,1.657,7.566A18.116,18.116,0,0,1,28.085,46.181Z" transform="translate(-20.13 -20.13)" fill="#212529"/>
    </g>
    <g id="XMLID_56_" transform="translate(3.351 3.348)">
      <path id="路径_171056" data-name="路径 171056" d="M7.266,31.051a.67.67,0,0,1-.609-.389A17.9,17.9,0,0,1,5,23.1,18.116,18.116,0,0,1,23.1,5a17.9,17.9,0,0,1,7.566,1.657A.67.67,0,1,1,30.1,7.874a16.575,16.575,0,0,0-7-1.533A16.774,16.774,0,0,0,6.34,23.1a16.575,16.575,0,0,0,1.533,7,.67.67,0,0,1-.608.951Z" transform="translate(-5 -5)" fill="#212529"/>
    </g>
    <g id="XMLID_5_" transform="translate(6.561 6.567)">
      <path id="路径_171057" data-name="路径 171057" d="M10.46,11.135a.671.671,0,0,1-.476-.2.672.672,0,0,1,0-.945.694.694,0,0,1,.945,0,.663.663,0,0,1,.007.945A.682.682,0,0,1,10.46,11.135Z" transform="translate(-9.79 -9.802)" fill="#212529"/>
    </g>
    <g id="XMLID_7_" transform="translate(4.665 4.67)">
      <path id="路径_171058" data-name="路径 171058" d="M7.63,8.3a.705.705,0,0,1-.476-.194.68.68,0,0,1,0-.952.693.693,0,0,1,.945,0A.67.67,0,0,1,7.63,8.3Z" transform="translate(-6.96 -6.972)" fill="#212529"/>
    </g>
    <g id="XMLID_9_" transform="translate(2.768 2.773)">
      <path id="路径_171059" data-name="路径 171059" d="M4.8,5.474a.673.673,0,0,1-.476-1.146A.67.67,0,0,1,5.47,4.8a.664.664,0,0,1-.67.67Z" transform="translate(-4.13 -4.142)" fill="#212529"/>
    </g>
    <g id="XMLID_12_" transform="translate(38.785 38.791)">
      <path id="路径_171060" data-name="路径 171060" d="M58.54,59.214a.664.664,0,1,1,.476-.194A.7.7,0,0,1,58.54,59.214Z" transform="translate(-57.87 -57.882)" fill="#212529"/>
    </g>
    <g id="XMLID_11_" transform="translate(36.889 36.894)">
      <path id="路径_171061" data-name="路径 171061" d="M55.71,56.385a.676.676,0,0,1-.476-.194.673.673,0,1,1,.952-.952.67.67,0,0,1-.476,1.146Z" transform="translate(-55.04 -55.052)" fill="#212529"/>
    </g>
    <g id="XMLID_10_" transform="translate(34.992 35.001)">
      <path id="路径_171062" data-name="路径 171062" d="M52.88,53.557a.648.648,0,0,1-.469-.194.656.656,0,0,1,0-.945.687.687,0,0,1,.945,0,.648.648,0,0,1,.194.469.664.664,0,0,1-.67.67Z" transform="translate(-52.21 -52.229)" fill="#212529"/>
    </g>
    <g id="XMLID_58_" transform="translate(9.825 3.919)">
      <path id="路径_171063" data-name="路径 171063" d="M15.33,7.184a.7.7,0,0,1-.476-.194.68.68,0,0,1,0-.952.673.673,0,0,1,.952.952A.7.7,0,0,1,15.33,7.184Z" transform="translate(-14.66 -5.852)" fill="#212529"/>
    </g>
    <g id="XMLID_34_" transform="translate(8.364 1.672)">
      <path id="路径_171064" data-name="路径 171064" d="M13.15,3.833a.673.673,0,0,1-.476-1.146.7.7,0,0,1,.952,0,.672.672,0,0,1,0,.945A.658.658,0,0,1,13.15,3.833Z" transform="translate(-12.48 -2.499)" fill="#212529"/>
    </g>
    <g id="XMLID_30_" transform="translate(33.189 39.897)">
      <path id="路径_171065" data-name="路径 171065" d="M50.19,60.858a.663.663,0,0,1-.476-.194.671.671,0,0,1,0-.945.7.7,0,0,1,.952,0,.667.667,0,0,1-.476,1.139Z" transform="translate(-49.52 -59.532)" fill="#212529"/>
    </g>
    <g id="XMLID_29_" transform="translate(31.728 37.644)">
      <path id="路径_171066" data-name="路径 171066" d="M48.01,57.5a.664.664,0,1,1,.476-.194A.7.7,0,0,1,48.01,57.5Z" transform="translate(-47.34 -56.172)" fill="#212529"/>
    </g>
    <g id="XMLID_79_" transform="translate(3.914 9.834)">
      <path id="路径_171067" data-name="路径 171067" d="M6.51,16.006a.67.67,0,1,1,.476-1.139.675.675,0,0,1,.194.469.664.664,0,0,1-.67.67Z" transform="translate(-5.84 -14.677)" fill="#212529"/>
    </g>
    <g id="XMLID_78_" transform="translate(1.669 8.373)">
      <path id="路径_171068" data-name="路径 171068" d="M3.153,13.826a.648.648,0,0,1-.469-.194.663.663,0,0,1-.194-.476.648.648,0,0,1,.194-.469.693.693,0,0,1,.945-.007.681.681,0,0,1,.2.476.675.675,0,0,1-.677.67Z" transform="translate(-2.49 -12.497)" fill="#212529"/>
    </g>
    <g id="XMLID_65_" transform="translate(39.891 33.195)">
      <path id="路径_171069" data-name="路径 171069" d="M60.19,50.865a.664.664,0,0,1-.67-.67.662.662,0,0,1,.194-.476.693.693,0,0,1,.945,0,.663.663,0,0,1,.194.476.664.664,0,0,1-.663.67Z" transform="translate(-59.52 -49.532)" fill="#212529"/>
    </g>
    <g id="XMLID_64_" transform="translate(37.639 31.733)">
      <path id="路径_171070" data-name="路径 171070" d="M56.83,48.684a.664.664,0,1,1,.476-.194A.7.7,0,0,1,56.83,48.684Z" transform="translate(-56.16 -47.352)" fill="#212529"/>
    </g>
    <g id="XMLID_226_" transform="translate(6.032 6.029)">
      <path id="路径_171071" data-name="路径 171071" d="M10.635,30.32a.67.67,0,0,1-.626-.431A15.26,15.26,0,0,1,9,24.415,15.432,15.432,0,0,1,24.415,9a15.26,15.26,0,0,1,5.474,1.009.67.67,0,1,1-.479,1.252,13.921,13.921,0,0,0-4.995-.921A14.09,14.09,0,0,0,10.34,24.415a13.921,13.921,0,0,0,.921,4.995.671.671,0,0,1-.626.91Z" transform="translate(-9 -9)" fill="#212529"/>
    </g>
    <g id="XMLID_225_" transform="translate(15.542 15.539)">
      <path id="路径_171072" data-name="路径 171072" d="M29.094,44.509A15.26,15.26,0,0,1,23.62,43.5a.67.67,0,0,1,.479-1.252,13.921,13.921,0,0,0,4.995.921A14.09,14.09,0,0,0,43.169,29.094a13.921,13.921,0,0,0-.921-4.995.67.67,0,0,1,1.252-.479,15.26,15.26,0,0,1,1.009,5.474A15.432,15.432,0,0,1,29.094,44.509Z" transform="translate(-23.19 -23.19)" fill="#212529"/>
    </g>
  </g>
</svg>
