<svg id="icon-b" xmlns="http://www.w3.org/2000/svg" width="48" height="48" viewBox="0 0 48 48">
  <rect id="矩形_106967" data-name="矩形 106967" width="48" height="48" fill="#fff" opacity="0"/>
  <g id="XMLID_1286_" transform="translate(2.681 5.362)">
    <g id="XMLID_1285_" transform="translate(6.032 11.394)">
      <path id="路径_171146" data-name="路径 171146" d="M17.713,28.362H9.67a.67.67,0,0,1-.67-.67V23.67A.67.67,0,0,1,9.67,23h8.043a.67.67,0,0,1,.67.67v4.021A.67.67,0,0,1,17.713,28.362Z" transform="translate(-9 -23)" fill="#9ac14e"/>
    </g>
    <g id="XMLID_1284_" transform="translate(18.096 11.394)">
      <path id="路径_171147" data-name="路径 171147" d="M35.713,28.362H27.67a.67.67,0,0,1-.67-.67V23.67a.67.67,0,0,1,.67-.67h8.043a.67.67,0,0,1,.67.67v4.021A.67.67,0,0,1,35.713,28.362Z" transform="translate(-27 -23)" fill="#9ac14e"/>
    </g>
    <g id="XMLID_952_" transform="translate(0.67 30.83)">
      <rect id="矩形_106961" data-name="矩形 106961" width="41.553" height="6.702" fill="#9ac14e"/>
    </g>
    <g id="XMLID_1848_" transform="translate(16.085 24.798)">
      <path id="路径_171148" data-name="路径 171148" d="M34.053,44.34H24.67a.67.67,0,1,1,0-1.34h9.383a.67.67,0,1,1,0,1.34Z" transform="translate(-24 -43)" fill="#212529"/>
    </g>
    <g id="XMLID_1847_" transform="translate(0 5.362)">
      <path id="路径_171149" data-name="路径 171149" d="M40.883,34.777H36.862a.67.67,0,1,1,0-1.34h4.021a.671.671,0,0,0,.67-.67V26.734a1.342,1.342,0,0,0-1.34-1.34h-6.7A2.013,2.013,0,0,1,31.5,23.383V19.449a2.013,2.013,0,0,1,2.011-2.011h2.011a.671.671,0,0,0,.67-.67v-.757a.671.671,0,0,0-.67-.67H2.011a.671.671,0,0,0-.67.67V32.766a.671.671,0,0,0,.67.67H6.032a.67.67,0,1,1,0,1.34H2.011A2.013,2.013,0,0,1,0,32.766V16.011A2.013,2.013,0,0,1,2.011,14H35.521a2.013,2.013,0,0,1,2.011,2.011v.757a2.013,2.013,0,0,1-2.011,2.011H33.511a.671.671,0,0,0-.67.67v3.934a.671.671,0,0,0,.67.67h6.7a2.684,2.684,0,0,1,2.681,2.681v6.032A2.013,2.013,0,0,1,40.883,34.777Z" transform="translate(0 -14)" fill="#212529"/>
    </g>
    <g id="XMLID_1846_" transform="translate(34.851 8.801)">
      <path id="路径_171150" data-name="路径 171150" d="M53.32,27.086a.67.67,0,0,1-.666-.6L52,19.866a.67.67,0,0,1,1.334-.131l.65,6.615a.67.67,0,0,1-.6.732C53.364,27.085,53.342,27.086,53.32,27.086Z" transform="translate(-52 -19.132)" fill="#212529"/>
    </g>
    <g id="XMLID_1845_" transform="translate(4.021 9.383)">
      <path id="路径_171151" data-name="路径 171151" d="M15.383,26.7H7.34A1.342,1.342,0,0,1,6,25.362V21.34A1.342,1.342,0,0,1,7.34,20h8.043a1.342,1.342,0,0,1,1.34,1.34v4.021A1.342,1.342,0,0,1,15.383,26.7ZM7.34,21.34v4.021h8.044V21.34Z" transform="translate(-6 -20)" fill="#212529"/>
    </g>
    <g id="XMLID_1844_" transform="translate(0 18.096)">
      <path id="路径_171152" data-name="路径 171152" d="M42.223,34.34H.67A.67.67,0,1,1,.67,33H42.223a.67.67,0,0,1,0,1.34Z" transform="translate(0 -33)" fill="#212529"/>
    </g>
    <g id="XMLID_1843_" transform="translate(16.085 9.383)">
      <path id="路径_171153" data-name="路径 171153" d="M33.383,26.7H25.34A1.342,1.342,0,0,1,24,25.362V21.34A1.342,1.342,0,0,1,25.34,20h8.043a1.342,1.342,0,0,1,1.34,1.34v4.021A1.342,1.342,0,0,1,33.383,26.7ZM25.34,21.34v4.021h8.044V21.34Z" transform="translate(-24 -20)" fill="#212529"/>
    </g>
    <g id="XMLID_1842_" transform="translate(8.713 9.383)">
      <path id="路径_171154" data-name="路径 171154" d="M13.67,26.7a.67.67,0,0,1-.67-.67V20.67a.67.67,0,1,1,1.34,0v5.362A.67.67,0,0,1,13.67,26.7Z" transform="translate(-13 -20)" fill="#212529"/>
    </g>
    <g id="XMLID_1841_" transform="translate(20.777 9.383)">
      <path id="路径_171155" data-name="路径 171155" d="M31.67,26.7a.67.67,0,0,1-.67-.67V20.67a.67.67,0,0,1,1.34,0v5.362A.67.67,0,0,1,31.67,26.7Z" transform="translate(-31 -20)" fill="#212529"/>
    </g>
    <g id="XMLID_1840_" transform="translate(30.83 22.117)">
      <path id="路径_171156" data-name="路径 171156" d="M49.351,45.7A3.351,3.351,0,1,1,52.7,42.351,3.355,3.355,0,0,1,49.351,45.7Zm0-5.362a2.011,2.011,0,1,0,2.011,2.011A2.013,2.013,0,0,0,49.351,40.34Z" transform="translate(-46 -39)" fill="#212529"/>
    </g>
    <g id="XMLID_1839_" transform="translate(25.468 22.117)">
      <path id="路径_171157" data-name="路径 171157" d="M41.351,45.7A3.351,3.351,0,1,1,44.7,42.351,3.355,3.355,0,0,1,41.351,45.7Zm0-5.362a2.011,2.011,0,1,0,2.011,2.011A2.013,2.013,0,0,0,41.351,40.34Z" transform="translate(-38 -39)" fill="#212529"/>
    </g>
    <g id="XMLID_1837_" transform="translate(10.723 22.117)">
      <path id="路径_171158" data-name="路径 171158" d="M19.351,45.7A3.351,3.351,0,1,1,22.7,42.351,3.355,3.355,0,0,1,19.351,45.7Zm0-5.362a2.011,2.011,0,1,0,2.011,2.011A2.013,2.013,0,0,0,19.351,40.34Z" transform="translate(-16 -39)" fill="#212529"/>
    </g>
    <g id="XMLID_1836_" transform="translate(5.362 22.117)">
      <path id="路径_171159" data-name="路径 171159" d="M11.351,45.7A3.351,3.351,0,1,1,14.7,42.351,3.355,3.355,0,0,1,11.351,45.7Zm0-5.362a2.011,2.011,0,1,0,2.011,2.011A2.013,2.013,0,0,0,11.351,40.34Z" transform="translate(-8 -39)" fill="#212529"/>
    </g>
    <g id="XMLID_1834_" transform="translate(28.149 24.806)">
      <path id="路径_171160" data-name="路径 171160" d="M42.67,44.345a.673.673,0,1,1,.67-.67.694.694,0,0,1-.194.476A.706.706,0,0,1,42.67,44.345Z" transform="translate(-42 -43.012)" fill="#212529"/>
    </g>
    <g id="XMLID_1833_" transform="translate(33.511 24.806)">
      <path id="路径_171161" data-name="路径 171161" d="M50.67,44.345a.664.664,0,1,1,.476-.194A.705.705,0,0,1,50.67,44.345Z" transform="translate(-50 -43.012)" fill="#212529"/>
    </g>
    <g id="XMLID_1832_" transform="translate(13.404 24.806)">
      <path id="路径_171162" data-name="路径 171162" d="M20.67,44.345a.664.664,0,1,1,.476-.194A.705.705,0,0,1,20.67,44.345Z" transform="translate(-20 -43.012)" fill="#212529"/>
    </g>
    <g id="XMLID_1831_" transform="translate(8.043 24.809)">
      <path id="路径_171163" data-name="路径 171163" d="M12.67,44.346a.705.705,0,0,1-.476-.194A.693.693,0,0,1,12,43.676a.673.673,0,1,1,.67.67Z" transform="translate(-12 -43.016)" fill="#212529"/>
    </g>
    <g id="XMLID_1830_" transform="translate(4.691 2.681)">
      <path id="路径_171164" data-name="路径 171164" d="M12.362,11.34H7.67a.67.67,0,1,1,0-1.34h4.691a.67.67,0,0,1,0,1.34Z" transform="translate(-7 -10)" fill="#212529"/>
    </g>
    <g id="XMLID_1829_" transform="translate(2.681 2.689)">
      <path id="路径_171165" data-name="路径 171165" d="M4.67,11.345a.673.673,0,1,1,.67-.67.664.664,0,0,1-.67.67Z" transform="translate(-4 -10.012)" fill="#212529"/>
    </g>
    <g id="XMLID_1828_" transform="translate(0 2.689)">
      <path id="路径_171166" data-name="路径 171166" d="M.67,11.345a.705.705,0,0,1-.476-.194.68.68,0,0,1,0-.952.7.7,0,0,1,.952,0,.68.68,0,0,1,0,.952A.706.706,0,0,1,.67,11.345Z" transform="translate(0 -10.012)" fill="#212529"/>
    </g>
    <g id="XMLID_1827_" transform="translate(3.351)">
      <path id="路径_171167" data-name="路径 171167" d="M10.362,7.34H5.67A.67.67,0,0,1,5.67,6h4.691a.67.67,0,1,1,0,1.34Z" transform="translate(-5 -6)" fill="#212529"/>
    </g>
    <g id="XMLID_1826_" transform="translate(1.34 0.008)">
      <path id="路径_171168" data-name="路径 171168" d="M2.67,7.345A.673.673,0,0,1,2.194,6.2a.7.7,0,0,1,.952,0A.67.67,0,0,1,2.67,7.345Z" transform="translate(-2 -6.012)" fill="#212529"/>
    </g>
    <g id="XMLID_1824_" transform="translate(0 28.149)">
      <path id="路径_171169" data-name="路径 171169" d="M42.223,49.34H.67A.67.67,0,1,1,.67,48H42.223a.67.67,0,0,1,0,1.34Z" transform="translate(0 -48)" fill="#212529"/>
    </g>
    <g id="XMLID_1823_" transform="translate(0 34.851)">
      <path id="路径_171170" data-name="路径 171170" d="M42.223,59.34H.67A.67.67,0,1,1,.67,58H42.223a.67.67,0,0,1,0,1.34Z" transform="translate(0 -58)" fill="#212529"/>
    </g>
    <g id="XMLID_1822_" transform="translate(38.202 32.179)">
      <path id="路径_171171" data-name="路径 171171" d="M57.67,55.345a.664.664,0,1,1,.476-.194A.705.705,0,0,1,57.67,55.345Z" transform="translate(-57 -54.012)" fill="#212529"/>
    </g>
    <g id="XMLID_1821_" transform="translate(32.17 30.838)">
      <path id="路径_171172" data-name="路径 171172" d="M48.67,53.345a.664.664,0,1,1,.476-.194A.705.705,0,0,1,48.67,53.345Z" transform="translate(-48 -52.012)" fill="#212529"/>
    </g>
    <g id="XMLID_1820_" transform="translate(23.457 31.508)">
      <path id="路径_171173" data-name="路径 171173" d="M35.67,54.345a.672.672,0,1,1,.476-1.146.692.692,0,0,1,.194.476.664.664,0,0,1-.67.67Z" transform="translate(-35 -53.012)" fill="#212529"/>
    </g>
    <g id="XMLID_1819_" transform="translate(16.755 32.179)">
      <path id="路径_171174" data-name="路径 171174" d="M25.67,55.345a.664.664,0,1,1,.476-.194A.705.705,0,0,1,25.67,55.345Z" transform="translate(-25 -54.012)" fill="#212529"/>
    </g>
    <g id="XMLID_1818_" transform="translate(9.383 30.838)">
      <path id="路径_171175" data-name="路径 171175" d="M14.67,53.345a.664.664,0,1,1,.476-.194A.705.705,0,0,1,14.67,53.345Z" transform="translate(-14 -52.012)" fill="#212529"/>
    </g>
    <g id="XMLID_1817_" transform="translate(3.351 30.838)">
      <path id="路径_171176" data-name="路径 171176" d="M5.67,53.345a.664.664,0,1,1,.476-.194A.705.705,0,0,1,5.67,53.345Z" transform="translate(-5 -52.012)" fill="#212529"/>
    </g>
  </g>
</svg>
