<svg id="logo-s" xmlns="http://www.w3.org/2000/svg" width="200" height="48" viewBox="0 0 200 48">
  <rect id="矩形_49127" data-name="矩形 49127" width="200" height="48" fill="#fff" opacity="0.005"/>
  <g id="组_94014" data-name="组 94014" transform="translate(7 4)">
    <path id="路径_170935" data-name="路径 170935" d="M6.237-8.074H.88a.465.465,0,0,0-.506.528.461.461,0,0,0,.506.517H2.794V-.583a.681.681,0,0,0,.759.748.685.685,0,0,0,.77-.748V-7.029H6.237a.461.461,0,0,0,.506-.517A.46.46,0,0,0,6.237-8.074Zm4.752,2.849a2.611,2.611,0,0,0-1.969-.66,3.025,3.025,0,0,0-2.365,1,.529.529,0,0,0,.055.77.56.56,0,0,0,.781-.077A2.062,2.062,0,0,1,9-4.9a.984.984,0,0,1,1.045,1.122v.11a3.347,3.347,0,0,0-.726-.044c-1.837.022-3.036.847-3.036,2.134A1.67,1.67,0,0,0,8.14.165,2.2,2.2,0,0,0,10.131-.847v.3a.628.628,0,0,0,.693.715c.451,0,.66-.253.66-.715V-3.729A2.063,2.063,0,0,0,10.989-5.225ZM10.043-1.9A1.841,1.841,0,0,1,8.492-.891.715.715,0,0,1,7.7-1.672c-.011-.539.429-1.056,1.628-1.1a4.582,4.582,0,0,1,.715.033Zm3.828-4.785a.867.867,0,0,0,.9-.88.866.866,0,0,0-.9-.9.9.9,0,0,0-.924.9A.9.9,0,0,0,13.871-6.688Zm0,6.853a.673.673,0,0,0,.759-.737V-5.049a.673.673,0,0,0-.759-.737.67.67,0,0,0-.748.737V-.572A.67.67,0,0,0,13.871.165Zm5.621-6.05a1.977,1.977,0,0,0-1.826,1.023V-5.2a.606.606,0,0,0-.693-.671.626.626,0,0,0-.7.682v4.62a.675.675,0,0,0,.748.737.673.673,0,0,0,.759-.737V-3.685a1.42,1.42,0,0,1,1.3-1.177c.6,0,.968.462.968,1.276V-.572a.67.67,0,0,0,.748.737.67.67,0,0,0,.748-.737V-3.707A1.983,1.983,0,0,0,19.492-5.885Zm7.854.66a2.611,2.611,0,0,0-1.969-.66,3.025,3.025,0,0,0-2.365,1,.529.529,0,0,0,.055.77.56.56,0,0,0,.781-.077,2.062,2.062,0,0,1,1.507-.7A.984.984,0,0,1,26.4-3.773v.11a3.347,3.347,0,0,0-.726-.044c-1.837.022-3.036.847-3.036,2.134A1.67,1.67,0,0,0,24.5.165,2.2,2.2,0,0,0,26.488-.847v.3a.628.628,0,0,0,.693.715c.451,0,.66-.253.66-.715V-3.729A2.063,2.063,0,0,0,27.346-5.225ZM26.4-1.9A1.841,1.841,0,0,1,24.849-.891a.715.715,0,0,1-.792-.781c-.011-.539.429-1.056,1.628-1.1a4.582,4.582,0,0,1,.715.033Zm6.16-3.982a1.977,1.977,0,0,0-1.826,1.023V-5.2a.606.606,0,0,0-.693-.671.627.627,0,0,0-.7.682v4.62a.675.675,0,0,0,.748.737.673.673,0,0,0,.759-.737V-3.685a1.42,1.42,0,0,1,1.3-1.177c.605,0,.968.462.968,1.276V-.572a.67.67,0,0,0,.748.737.67.67,0,0,0,.748-.737V-3.707A1.983,1.983,0,0,0,32.56-5.885ZM43.4.165A3.521,3.521,0,0,0,45.683-.5a.609.609,0,0,0,.143-.825A.559.559,0,0,0,45-1.375a2.455,2.455,0,0,1-1.529.462c-1.386,0-2.178-1.144-2.178-3.212,0-1.991.88-3.036,2.2-3.036a2.523,2.523,0,0,1,1.452.451.578.578,0,0,0,.814-.132A.538.538,0,0,0,45.6-7.59a3.412,3.412,0,0,0-2.123-.649c-2.343,0-3.751,1.628-3.751,4.1C39.721-1.364,41.063.165,43.4.165Zm6.974-6.05a1.908,1.908,0,0,0-1.727.88V-7.843a.662.662,0,0,0-.748-.726.666.666,0,0,0-.759.726V-.55a.663.663,0,0,0,.759.715.654.654,0,0,0,.748-.715V-3.74a1.418,1.418,0,0,1,1.3-1.067c.627,0,.968.418.968,1.188V-.55a.646.646,0,0,0,.737.715.646.646,0,0,0,.737-.715V-3.707A1.959,1.959,0,0,0,50.369-5.885Zm4.411-.8a.867.867,0,0,0,.9-.88.866.866,0,0,0-.9-.9.9.9,0,0,0-.924.9A.9.9,0,0,0,54.78-6.688Zm0,6.853a.673.673,0,0,0,.759-.737V-5.049a.673.673,0,0,0-.759-.737.67.67,0,0,0-.748.737V-.572A.67.67,0,0,0,54.78.165Zm3.817,0c.583,0,1.232-.154,1.232-.649,0-.275-.154-.55-.429-.55-.176,0-.253.066-.407.066-.22,0-.341-.2-.341-.561V-7.843a.678.678,0,0,0-.759-.737.67.67,0,0,0-.748.737v6.3C57.145-.352,57.563.165,58.6.165Zm6.644-8.657a.677.677,0,0,0-.759.748v2.453a2.025,2.025,0,0,0-1.463-.594c-1.408,0-2.574,1.056-2.574,3.1C60.445-.638,61.7.165,63.008.165a2.167,2.167,0,0,0,1.551-.638A.665.665,0,0,0,65.3.165a.636.636,0,0,0,.693-.693V-7.733A.677.677,0,0,0,65.241-8.492ZM63.349-.858c-.792,0-1.419-.616-1.419-1.947s.55-2.035,1.331-2.035a1.472,1.472,0,0,1,1.3.847v2.442A1.5,1.5,0,0,1,63.349-.858Zm8.019-4.466c-.033-.407-.33-.561-.77-.55A1.706,1.706,0,0,0,69-4.444v-.781a.609.609,0,0,0-.682-.66.629.629,0,0,0-.715.66V-.572a.675.675,0,0,0,.748.737.673.673,0,0,0,.759-.737V-3.091A1.835,1.835,0,0,1,70.6-4.62C71.093-4.675,71.412-4.818,71.368-5.324ZM74.646-5.9c-1.8,0-2.9,1.21-2.9,3.179A2.637,2.637,0,0,0,74.69.165,2.675,2.675,0,0,0,76.857-.66a.476.476,0,0,0-.033-.682.507.507,0,0,0-.682.033,1.922,1.922,0,0,1-1.375.473c-.935,0-1.419-.495-1.507-1.65H76.4a.76.76,0,0,0,.869-.836A2.514,2.514,0,0,0,74.646-5.9Zm1.1,2.42H73.293c.132-.891.583-1.452,1.353-1.452a1.2,1.2,0,0,1,1.21,1.342A.1.1,0,0,1,75.746-3.476Zm5.918-2.409a1.977,1.977,0,0,0-1.826,1.023V-5.2a.606.606,0,0,0-.693-.671.627.627,0,0,0-.7.682v4.62a.675.675,0,0,0,.748.737.673.673,0,0,0,.759-.737V-3.685a1.42,1.42,0,0,1,1.3-1.177c.6,0,.968.462.968,1.276V-.572a.67.67,0,0,0,.748.737.67.67,0,0,0,.748-.737V-3.707A1.983,1.983,0,0,0,81.664-5.885ZM85.58-4.708a1.934,1.934,0,0,0,1.463-2.024c0-.715-.4-1.221-1.034-1.221a.9.9,0,0,0-.99.869.784.784,0,0,0,.781.836.323.323,0,0,0,.209-.077c.044-.044.077-.022.077.055,0,.418-.3.682-.792.858a.371.371,0,0,0-.242.484A.4.4,0,0,0,85.58-4.708Zm1.947,3.487a.546.546,0,0,0,.1.759,3.337,3.337,0,0,0,2.145.627c1.188,0,2.255-.506,2.255-1.694,0-.891-.682-1.4-1.87-1.925-.814-.363-1.144-.561-1.144-.88,0-.3.308-.517.792-.517a1.964,1.964,0,0,1,1.166.33.577.577,0,0,0,.792-.088.526.526,0,0,0-.1-.715,2.93,2.93,0,0,0-1.9-.561c-1.32,0-2.233.649-2.233,1.6,0,.891.671,1.375,1.782,1.859.869.385,1.188.649,1.188.99,0,.385-.286.572-.891.572A2.529,2.529,0,0,1,88.22-1.32.488.488,0,0,0,87.527-1.221Zm9.328-.286a.623.623,0,0,0,.1.847A3.545,3.545,0,0,0,99.44.165c1.782,0,2.827-.847,2.827-2.277,0-1.067-.616-1.716-2.31-2.607C98.67-5.4,98.384-5.8,98.4-6.336c.011-.495.451-.836,1.155-.836a2.479,2.479,0,0,1,1.507.495.57.57,0,0,0,.836-.1.556.556,0,0,0-.132-.781,3.706,3.706,0,0,0-2.178-.682c-1.661,0-2.717.792-2.728,2.024-.022,1.111.693,1.76,2.288,2.618,1.287.682,1.584,1.122,1.573,1.672-.011.627-.528,1-1.331,1A2.739,2.739,0,0,1,97.6-1.606.517.517,0,0,0,96.855-1.507ZM106.139.165a2.6,2.6,0,0,0,2.046-.759.513.513,0,0,0-.022-.748.526.526,0,0,0-.715,0,1.648,1.648,0,0,1-1.2.451c-.9-.022-1.452-.671-1.463-1.969,0-1.254.55-1.98,1.463-1.98a1.545,1.545,0,0,1,1.133.462.519.519,0,0,0,.759.022.507.507,0,0,0,.022-.726,2.6,2.6,0,0,0-1.991-.8,2.8,2.8,0,0,0-2.926,3.069A2.686,2.686,0,0,0,106.139.165Zm4.213-6.853a.867.867,0,0,0,.9-.88.866.866,0,0,0-.9-.9.9.9,0,0,0-.924.9A.9.9,0,0,0,110.352-6.688Zm0,6.853a.673.673,0,0,0,.759-.737V-5.049a.673.673,0,0,0-.759-.737.67.67,0,0,0-.748.737V-.572A.67.67,0,0,0,110.352.165ZM115.3-5.9c-1.8,0-2.9,1.21-2.9,3.179A2.637,2.637,0,0,0,115.346.165a2.675,2.675,0,0,0,2.167-.825.476.476,0,0,0-.033-.682.507.507,0,0,0-.682.033,1.922,1.922,0,0,1-1.375.473c-.935,0-1.419-.495-1.507-1.65h3.135a.76.76,0,0,0,.869-.836A2.514,2.514,0,0,0,115.3-5.9Zm1.1,2.42h-2.453c.132-.891.583-1.452,1.353-1.452a1.2,1.2,0,0,1,1.21,1.342A.1.1,0,0,1,116.4-3.476Zm5.918-2.409a1.977,1.977,0,0,0-1.826,1.023V-5.2a.606.606,0,0,0-.693-.671.626.626,0,0,0-.7.682v4.62a.675.675,0,0,0,.748.737.673.673,0,0,0,.759-.737V-3.685a1.42,1.42,0,0,1,1.3-1.177c.605,0,.968.462.968,1.276V-.572a.67.67,0,0,0,.748.737.67.67,0,0,0,.748-.737V-3.707A1.983,1.983,0,0,0,122.32-5.885ZM128.4.165a2.6,2.6,0,0,0,2.046-.759.513.513,0,0,0-.022-.748.526.526,0,0,0-.715,0,1.648,1.648,0,0,1-1.2.451c-.9-.022-1.452-.671-1.463-1.969,0-1.254.55-1.98,1.463-1.98a1.545,1.545,0,0,1,1.133.462.519.519,0,0,0,.759.022.507.507,0,0,0,.022-.726,2.6,2.6,0,0,0-1.991-.8,2.8,2.8,0,0,0-2.926,3.069A2.686,2.686,0,0,0,128.4.165ZM134.277-5.9c-1.8,0-2.9,1.21-2.9,3.179A2.637,2.637,0,0,0,134.321.165a2.675,2.675,0,0,0,2.167-.825.476.476,0,0,0-.033-.682.507.507,0,0,0-.682.033,1.922,1.922,0,0,1-1.375.473c-.935,0-1.419-.495-1.507-1.65h3.135a.76.76,0,0,0,.869-.836A2.514,2.514,0,0,0,134.277-5.9Zm1.1,2.42h-2.453c.132-.891.583-1.452,1.353-1.452a1.2,1.2,0,0,1,1.21,1.342A.1.1,0,0,1,135.377-3.476ZM149.754.165a.66.66,0,0,0,.726-.726V-7.139c0-.682-.319-1.1-.946-1.1a1.139,1.139,0,0,0-1.177.913c-.616,1.694-1.43,3.949-1.991,5.423h-.044c-.583-1.452-1.518-3.894-2.145-5.423-.264-.649-.528-.9-1.078-.9a.984.984,0,0,0-1.012,1.1V-.561a.646.646,0,0,0,.693.726.641.641,0,0,0,.693-.726V-4.587c0-.407-.066-1.21-.11-1.529l.077-.022c.616,1.771,1.452,3.883,1.98,5.115a.91.91,0,0,0,.913.66c.418,0,.638-.187.836-.66.55-1.254,1.375-3.333,1.936-5.1l.077.022a13.36,13.36,0,0,0-.143,1.529V-.561A.657.657,0,0,0,149.754.165Zm6.941-6.05a.664.664,0,0,0-.737.726v3.025c-.121.517-.594,1.254-1.309,1.254-.66,0-.935-.4-.935-1.3v-2.97a.678.678,0,0,0-.759-.737.67.67,0,0,0-.748.737v3.179a1.923,1.923,0,0,0,2.1,2.123,1.882,1.882,0,0,0,1.771-.968v.33a.621.621,0,0,0,.682.649.605.605,0,0,0,.671-.66V-5.159A.664.664,0,0,0,156.695-5.885Zm2.024,4.664a.546.546,0,0,0,.1.759,3.337,3.337,0,0,0,2.145.627c1.188,0,2.255-.506,2.255-1.694,0-.891-.682-1.4-1.87-1.925-.814-.363-1.144-.561-1.144-.88,0-.3.308-.517.792-.517a1.964,1.964,0,0,1,1.166.33.577.577,0,0,0,.792-.088.526.526,0,0,0-.1-.715,2.93,2.93,0,0,0-1.9-.561c-1.32,0-2.233.649-2.233,1.6,0,.891.671,1.375,1.782,1.859.869.385,1.188.649,1.188.99,0,.385-.286.572-.891.572a2.529,2.529,0,0,1-1.386-.451A.488.488,0,0,0,158.719-1.221ZM166.947-5.9c-1.8,0-2.9,1.21-2.9,3.179A2.637,2.637,0,0,0,166.991.165a2.675,2.675,0,0,0,2.167-.825.476.476,0,0,0-.033-.682.507.507,0,0,0-.682.033,1.922,1.922,0,0,1-1.375.473c-.935,0-1.419-.495-1.507-1.65H168.7a.76.76,0,0,0,.869-.836A2.514,2.514,0,0,0,166.947-5.9Zm1.1,2.42h-2.453c.132-.891.583-1.452,1.353-1.452a1.2,1.2,0,0,1,1.21,1.342A.1.1,0,0,1,168.047-3.476Zm7.084-2.409a.664.664,0,0,0-.737.726v3.025c-.121.517-.594,1.254-1.309,1.254-.66,0-.935-.4-.935-1.3v-2.97a.678.678,0,0,0-.759-.737.67.67,0,0,0-.748.737v3.179a1.923,1.923,0,0,0,2.1,2.123,1.882,1.882,0,0,0,1.771-.968v.33a.621.621,0,0,0,.682.649.605.605,0,0,0,.671-.66V-5.159A.664.664,0,0,0,175.131-5.885Zm8.877,0a1.957,1.957,0,0,0-1.76.9,1.79,1.79,0,0,0-1.672-.9,1.753,1.753,0,0,0-1.65.924v-.22a.638.638,0,0,0-.715-.693.664.664,0,0,0-.737.726V-.572a.675.675,0,0,0,.748.737.673.673,0,0,0,.759-.737v-3.2a1.391,1.391,0,0,1,1.177-1.111c.55-.011.869.385.869,1.111V-.561a.662.662,0,0,0,.748.726.664.664,0,0,0,.737-.726V-3.905a1.3,1.3,0,0,1,1.133-.99c.572-.011.891.4.891,1.133v3.2a.659.659,0,0,0,.737.726.667.667,0,0,0,.748-.726V-3.839A1.865,1.865,0,0,0,184.008-5.885Z" transform="translate(-0.374 40.941)" fill="#343a40"/>
    <path id="路径_170936" data-name="路径 170936" d="M24.36-19.992H20.832v-2.184a1.573,1.573,0,0,0-1.792-1.652,1.573,1.573,0,0,0-1.792,1.652v2.184H14.112a1.447,1.447,0,0,0-1.6,1.176,2.137,2.137,0,0,0-.224-.308,14.6,14.6,0,0,0-3.08-2.6A1.464,1.464,0,0,0,8.26-23.8a1.658,1.658,0,0,0-2.3,1.064,21.4,21.4,0,0,1-4.4,7.616.835.835,0,0,0-.084,1.148c.28.364.672.42,1.148.084.392-.252.812-.56,1.2-.868a1.716,1.716,0,0,0-.28,1.064V-1.624l-.448.084A1.482,1.482,0,0,0,1.708.448,1.475,1.475,0,0,0,3.836,1.54a28.154,28.154,0,0,0,6.02-2.66c.14.448.308.9.448,1.316.336,1.064,1.064,1.4,1.96.952a1.43,1.43,0,0,0,.7-2.156A16.5,16.5,0,0,0,9.856-5.236.793.793,0,0,0,8.708-5.4a.829.829,0,0,0-.28,1.148c.252.448.476.952.728,1.456l-2.52.588v-4.2h4.032A1.491,1.491,0,0,0,12.32-8.064v-5.628a1.491,1.491,0,0,0-1.652-1.652H8.876L8.96-15.4c.672-.448.924-1.064.392-1.708a9.785,9.785,0,0,0-1.736-1.82c.252-.392.532-.812.756-1.232a22.211,22.211,0,0,1,1.708,2.632c.532.9,1.232,1.064,1.988.532a2.97,2.97,0,0,0,.42-.42V-15.9A1.277,1.277,0,0,0,13.8-14.448a2.652,2.652,0,0,0-.112.728V1.316c0,.812.588,1.316,1.624,1.316,1.008,0,1.6-.5,1.6-1.316V.224h5.012V1.288c0,.84.56,1.288,1.568,1.288,1.036,0,1.6-.448,1.6-1.288v-6.44a1.475,1.475,0,0,0-1.624-1.624H16.912V-8.708h5.8a1.483,1.483,0,0,0,1.652-1.624V-13.72a3.446,3.446,0,0,0-.056-.56h.14c1.008,0,1.54-.448,1.54-1.456v-2.632A1.462,1.462,0,0,0,24.36-19.992Zm-8.82,4.648a1.684,1.684,0,0,0,.084-.56v-1.764A.324.324,0,0,1,15.96-18h6.552a.324.324,0,0,1,.336.336v1.932a1.722,1.722,0,0,0,.028.392H15.54Zm-8.288-.588a1.636,1.636,0,0,0,.448.588H5.18a1.87,1.87,0,0,0-.84.168,21.087,21.087,0,0,0,2.184-2.268ZM9.3-13.1v1.2H6.636v-1.2a.324.324,0,0,1,.336-.336H8.96A.324.324,0,0,1,9.3-13.1ZM21.224-11a.324.324,0,0,1-.336.336H16.912v-2.38a.324.324,0,0,1,.336-.336h3.64a.324.324,0,0,1,.336.336ZM9.3-8.68a.324.324,0,0,1-.336.336H6.636v-1.68H9.3ZM21.588-4.816a.323.323,0,0,1,.336.336v2.772H16.912V-4.816Z" transform="translate(159.626 23.941)" fill="#229b96"/>
    <path id="路径_170937" data-name="路径 170937" d="M11.816-18.256a10.035,10.035,0,0,0,2.436-1.428c.364.336.672.672.952.952a.986.986,0,0,0,1.568-.028c.476-.476.42-1.036-.14-1.568a7.457,7.457,0,0,0-.868-.728,8.825,8.825,0,0,0,.672-.84,1,1,0,0,0-.28-1.6,1.143,1.143,0,0,0-1.652.476,5.911,5.911,0,0,1-.5.756,13.713,13.713,0,0,0-1.792-.924c-.448-.168-.756-.084-.952.252a.67.67,0,0,0,.224.952,16.938,16.938,0,0,1,1.4,1.064,12.4,12.4,0,0,1-1.764,1.484.632.632,0,0,0-.252.924C11.06-18.172,11.368-18.088,11.816-18.256ZM3.78-7.392c1.064,0,1.652-.532,1.652-1.512V-10.78a.324.324,0,0,1,.336-.336H22.2a.324.324,0,0,1,.336.336v1.848c0,.98.588,1.484,1.652,1.484s1.652-.5,1.652-1.484V-11.34a1.462,1.462,0,0,0-1.624-1.624H23.6c.168-2.52.308-5.292.42-8.12A1.459,1.459,0,0,0,22.4-22.736H18.172a.869.869,0,0,0-.952.952.89.89,0,0,0,.952.98h2.464a.309.309,0,0,1,.336.336c0,.336-.028.7-.028,1.036h-2.6a.861.861,0,0,0-.924.952.853.853,0,0,0,.924.924h2.548c-.028.42-.056.84-.056,1.26h-2.52a.84.84,0,0,0-.924.924.861.861,0,0,0,.924.952H20.72l-.084,1.456h-8.96l.112-.028a10.4,10.4,0,0,0,2.464-1.372c.364.336.7.672.98.952A.955.955,0,0,0,16.8-13.44c.476-.476.42-1.036-.14-1.568a5.955,5.955,0,0,0-.9-.728,8.586,8.586,0,0,0,.672-.812.969.969,0,0,0-.252-1.568,1.067,1.067,0,0,0-1.624.42c-.168.252-.364.5-.532.784a15.476,15.476,0,0,0-1.82-.9.711.711,0,0,0-.952.252.7.7,0,0,0,.224.98c.392.252.868.616,1.344.98a10.46,10.46,0,0,1-1.736,1.428.6.6,0,0,0-.252.9.6.6,0,0,0,.336.308H7.28c0-.476-.028-.98-.028-1.456H9.688a.849.849,0,0,0,.924-.952.84.84,0,0,0-.924-.924H7.2c-.028-.42-.028-.84-.056-1.26H9.66a.84.84,0,0,0,.924-.924.861.861,0,0,0-.924-.952H7.084c0-.336,0-.7-.028-1.036A11.117,11.117,0,0,0,10-21.28a1.123,1.123,0,0,0,.476-1.792A1.294,1.294,0,0,0,8.54-23.24a14.361,14.361,0,0,1-1.876,1.232,1.509,1.509,0,0,0-1.12-.392c-.98.028-1.512.5-1.484,1.512.084,2.632.2,5.292.28,7.924H3.78A1.471,1.471,0,0,0,2.128-11.34V-8.9C2.128-7.924,2.716-7.392,3.78-7.392ZM25.312-5.124H16.184v-.252a13.494,13.494,0,0,0,4.06-1.82c.924-.588,1.176-1.316.9-2.016-.252-.7-.868-.98-1.792-.98H7.616a.87.87,0,0,0-.98.924.878.878,0,0,0,.98.952h9.436c.308,0,.42.224.14.42a8.392,8.392,0,0,1-1.484.924,1.943,1.943,0,0,0-1.316-.392c-1.148,0-1.764.56-1.764,1.624v.616H2.716a.886.886,0,0,0-.98.98.907.907,0,0,0,.98,1.008h9.912v1.9c0,1.176-.252,1.316-3.556.9-.616-.084-.9.112-1.036.588a.836.836,0,0,0,.56,1.12c4.536,1.9,7.588,1.064,7.588-1.988v-2.52h9.128a.907.907,0,0,0,.98-1.008A.886.886,0,0,0,25.312-5.124Z" transform="translate(119.626 23.941)" fill="#9ac14e"/>
    <path id="路径_170938" data-name="路径 170938" d="M12.656-8.036a1.336,1.336,0,0,0,.112-2.128A19.059,19.059,0,0,0,9.24-13.132V-14.42H11.9a.894.894,0,0,0,.98-1.008.874.874,0,0,0-.98-.98H9.24v-3.416a21.5,21.5,0,0,0,2.24-.7,1.435,1.435,0,0,0,.84-2.3,1.667,1.667,0,0,0-2.52-.5,25.208,25.208,0,0,1-7.28,2.66c-.616.112-.84.476-.784.952.056.532.392.784.98.784.924-.028,2.016-.14,3.164-.28v2.8H2.492a.874.874,0,0,0-.98.98.894.894,0,0,0,.98,1.008H5.4A32.6,32.6,0,0,1,1.344-4.144c-.28.5-.308.952.084,1.288.42.336.84.28,1.288-.2A17.5,17.5,0,0,0,5.88-8.344v9.3c0,.98.588,1.512,1.68,1.512S9.24,1.932,9.24.952v-11.48c.448.672.9,1.4,1.26,2.044C11.088-7.448,11.9-7.364,12.656-8.036Zm14.112.784a.958.958,0,0,0-1.176-.924l-2.156.308V-21.952a1.506,1.506,0,0,0-1.708-1.6,1.515,1.515,0,0,0-1.736,1.6V-7.42c-2.744.364-5.516.728-8.288,1.064a1,1,0,0,0-.952,1.176A1.011,1.011,0,0,0,11.9-4.144c2.716-.336,5.4-.7,8.092-1.064V.9a1.515,1.515,0,0,0,1.736,1.6A1.506,1.506,0,0,0,23.436.9v-6.58c.784-.084,1.6-.2,2.38-.308A1.068,1.068,0,0,0,26.768-7.252Zm-10.64-8.6a1.425,1.425,0,0,0,2.38.448,1.479,1.479,0,0,0,0-2.408,15.789,15.789,0,0,0-3.892-2.884.814.814,0,0,0-1.12.14.828.828,0,0,0,0,1.148A34.214,34.214,0,0,1,16.128-15.848Zm-3.192,3.08a30.876,30.876,0,0,1,2.632,3.584c.672,1.064,1.512,1.176,2.352.448a1.494,1.494,0,0,0,.028-2.408,16.443,16.443,0,0,0-3.892-2.912.882.882,0,0,0-1.148.168A.822.822,0,0,0,12.936-12.768Z" transform="translate(79.626 23.941)" fill="#ff9138"/>
    <path id="路径_170939" data-name="路径 170939" d="M3.08-13.692H24.892a.866.866,0,0,0,.98-.952.866.866,0,0,0-.98-.952H18.648A14.161,14.161,0,0,0,19.8-16.968a1.306,1.306,0,0,0,.028-1.82H23.6a.857.857,0,0,0,.952-.952.849.849,0,0,0-.952-.924H15.9v-1.372A1.676,1.676,0,0,0,14-23.8c-1.26,0-1.932.644-1.932,1.764v1.372H4.4a.849.849,0,0,0-.952.924.857.857,0,0,0,.952.952h3.08a.925.925,0,0,0,.14.784c.532.756,1.12,1.624,1.568,2.408H3.08a.878.878,0,0,0-.98.952A.891.891,0,0,0,3.08-13.692Zm8.456-3.444A15.443,15.443,0,0,0,9.6-18.788h7.924a1.29,1.29,0,0,0-.252.476A24.71,24.71,0,0,1,16.1-15.6H11.928A1.379,1.379,0,0,0,11.536-17.136ZM25.424-.308h-9.6V-1.6h7.448a.878.878,0,0,0,.952-.98.849.849,0,0,0-.952-.924H15.82V-4.76h5.656A1.451,1.451,0,0,0,23.1-6.384v-4.564a1.462,1.462,0,0,0-1.624-1.624H6.524A1.475,1.475,0,0,0,4.9-10.948v4.564A1.462,1.462,0,0,0,6.524-4.76H12.18V-3.5H4.76a.849.849,0,0,0-.952.924.878.878,0,0,0,.952.98h7.42V-.308H2.716a.878.878,0,0,0-.952.98.869.869,0,0,0,.952.952H25.424A.891.891,0,0,0,26.4.672.912.912,0,0,0,25.424-.308ZM8.288-10.388a.324.324,0,0,1,.336-.336H12.18v1.2H8.288Zm7.532-.336h3.556a.324.324,0,0,1,.336.336v.868H15.82Zm-7.2,4.116a.324.324,0,0,1-.336-.336v-.868H12.18v1.2Zm7.2-1.2h3.892v.868a.323.323,0,0,1-.336.336H15.82Z" transform="translate(39.626 23.941)" fill="#fd373d"/>
    <path id="路径_170940" data-name="路径 170940" d="M26.32-5.908a.9.9,0,0,0-.98-.868c-.532,0-.84.336-.84.98-.084,3.388-.224,3.892-1.344,3.976a14.671,14.671,0,0,1-3.136,0c-.952-.084-1.176-.392-1.176-1.288V-8.54h3.108a1.492,1.492,0,0,0,1.624-1.68v-9.66a1.5,1.5,0,0,0-1.624-1.68H15.624a.9.9,0,0,0-.98,1.036.937.937,0,0,0,.98,1.064h4.032a.361.361,0,0,1,.364.392v2.8h-4a.907.907,0,0,0-.98,1.008.928.928,0,0,0,.98,1.036h4v3.192a.347.347,0,0,1-.336.364H8.26a.347.347,0,0,1-.336-.364v-3.192h4.06c.616,0,.952-.364.952-1.036a.887.887,0,0,0-.952-1.008H7.924V-18.7a16.776,16.776,0,0,0,4.788-1.764,1.692,1.692,0,0,0,.7-2.6,1.866,1.866,0,0,0-2.94-.084,21.217,21.217,0,0,1-2.912,2.38,1.676,1.676,0,0,0-1.4-.56,1.6,1.6,0,0,0-1.792,1.764v9.352A1.492,1.492,0,0,0,5.992-8.54H9.184C8.68-3.92,6.8-1.148,1.9,1.008A.835.835,0,0,0,1.344,2.1a.823.823,0,0,0,1.12.532C9.3,1.036,12.208-3.108,12.852-8.54h2.38v6.188c0,2.856.756,3.724,3.668,3.892a34.15,34.15,0,0,0,4.788,0C26.964,1.344,27.3-.392,26.32-5.908Z" transform="translate(-0.374 23.941)" fill="#d6336c"/>
  </g>
</svg>
