<svg id="menu-icon-2" xmlns="http://www.w3.org/2000/svg" width="66" height="66" viewBox="0 0 66 66">
  <rect id="矩形_106962" data-name="矩形 106962" width="66" height="66" fill="#fff" opacity="0"/>
  <g id="XMLID_863_" transform="translate(4.597 3.677)">
    <g id="XMLID_329_" transform="translate(18.386 0.919)">
      <path id="路径_171100" data-name="路径 171100" d="M34.709,56.16V24.713a64.353,64.353,0,0,0-1.576-14.155L31.79,4.6A4.532,4.532,0,0,0,27.355,1h0A4.532,4.532,0,0,0,22.92,4.6l-1.344,5.96A64.353,64.353,0,0,0,20,24.713V56.16A1.839,1.839,0,0,0,21.839,58H32.871A1.839,1.839,0,0,0,34.709,56.16Z" transform="translate(-20 -1)" fill="#ffac6a"/>
    </g>
    <g id="XMLID_79_" transform="translate(21.144)">
      <path id="路径_171101" data-name="路径 171101" d="M36.79,58.838H25.758A2.761,2.761,0,0,1,23,56.08V24.633a65.349,65.349,0,0,1,1.6-14.357l1.344-5.96a5.452,5.452,0,0,1,10.667.013l1.341,5.948a65.349,65.349,0,0,1,1.6,14.357V56.08A2.761,2.761,0,0,1,36.79,58.838Zm-5.516-57a3.63,3.63,0,0,0-3.536,2.868L26.392,10.68a63.5,63.5,0,0,0-1.554,13.953V56.08a.92.92,0,0,0,.919.919H36.79a.92.92,0,0,0,.919-.919V24.633A63.5,63.5,0,0,0,36.156,10.68L34.812,4.72A3.633,3.633,0,0,0,31.274,1.839Z" transform="translate(-23)" fill="#212529"/>
    </g>
    <g id="XMLID_83_" transform="translate(7.354 47.806)">
      <path id="路径_171102" data-name="路径 171102" d="M16.292,63.032H8.919A.919.919,0,0,1,8,62.021l.645-6.449a3.967,3.967,0,0,1,7.894,0l.627,6.267a.92.92,0,0,1-.878,1.192ZM9.935,61.193h5.323l-.544-5.438a2.128,2.128,0,0,0-4.235,0Z" transform="translate(-8 -52)" fill="#212529"/>
    </g>
    <g id="XMLID_85_" transform="translate(42.289 47.806)">
      <path id="路径_171103" data-name="路径 171103" d="M54.292,63.032H46.919A.919.919,0,0,1,46,62.021l.645-6.449a3.967,3.967,0,0,1,7.894,0l.627,6.267a.92.92,0,0,1-.878,1.192Zm-6.357-1.839h5.323l-.544-5.438a2.128,2.128,0,0,0-4.235,0Z" transform="translate(-46 -52)" fill="#212529"/>
    </g>
    <g id="XMLID_94_" transform="translate(35.853 54.241)">
      <path id="路径_171104" data-name="路径 171104" d="M46.63,60.839H39.919a.919.919,0,1,1,0-1.839H46.63a.919.919,0,1,1,0,1.839Z" transform="translate(-39 -59)" fill="#212529"/>
    </g>
    <g id="XMLID_92_" transform="translate(14.433 54.241)">
      <path id="路径_171105" data-name="路径 171105" d="M23.331,60.839H16.62a.919.919,0,1,1,0-1.839h6.711a.919.919,0,1,1,0,1.839Z" transform="translate(-15.7 -59)" fill="#212529"/>
    </g>
    <g id="XMLID_90_" transform="translate(35.853 26.661)">
      <path id="路径_171106" data-name="路径 171106" d="M60.136,58.419h-6.7a.919.919,0,1,1,0-1.839h6.7L59.06,51.21A2.807,2.807,0,0,0,56.7,49.022C47.274,47.58,39,38.653,39,29.919a.919.919,0,0,1,1.839,0c0,7.893,7.544,15.97,16.145,17.285a4.648,4.648,0,0,1,3.879,3.645l1.084,5.364a1.844,1.844,0,0,1-1.811,2.2Z" transform="translate(-39 -29)" fill="#212529"/>
    </g>
    <g id="XMLID_91_" transform="translate(0 26.661)">
      <path id="路径_171107" data-name="路径 171107" d="M8.55,58.419h-6.7a1.844,1.844,0,0,1-1.813-2.2l1.087-5.376A4.647,4.647,0,0,1,5,47.2c8.6-1.315,16.145-9.393,16.145-17.285a.919.919,0,0,1,1.839,0c0,8.734-8.274,17.661-17.705,19.1a2.806,2.806,0,0,0-2.354,2.183L1.839,56.578l6.711,0a.919.919,0,0,1,0,1.839Z" transform="translate(-0.001 -29)" fill="#212529"/>
    </g>
    <g id="XMLID_89_" transform="translate(23.212 7.355)">
      <path id="路径_171108" data-name="路径 171108" d="M36.742,9.839H26.169a.919.919,0,1,1,0-1.839H36.742a.919.919,0,1,1,0,1.839Z" transform="translate(-25.25 -8)" fill="#212529"/>
    </g>
    <g id="XMLID_86_" transform="translate(25.74 11.027)">
      <path id="路径_171109" data-name="路径 171109" d="M34.435,14.758a.915.915,0,0,1-.575-.2,3.7,3.7,0,0,0-4.364,0,.919.919,0,1,1-1.152-1.433,5.494,5.494,0,0,1,6.668,0,.919.919,0,0,1-.576,1.636Z" transform="translate(-28 -11.995)" fill="#212529"/>
    </g>
    <g id="XMLID_87_" transform="translate(32.176 26.672)">
      <path id="路径_171110" data-name="路径 171110" d="M35.919,30.84a.922.922,0,1,1,.653-1.572.949.949,0,0,1,.267.653.911.911,0,0,1-.919.919Z" transform="translate(-35 -29.012)" fill="#212529"/>
    </g>
    <g id="XMLID_88_" transform="translate(32.176 22.995)">
      <path id="路径_171111" data-name="路径 171111" d="M35.919,26.84a.922.922,0,1,1,.653-1.572.949.949,0,0,1,.267.653.911.911,0,0,1-.919.919Z" transform="translate(-35 -25.012)" fill="#212529"/>
    </g>
    <g id="XMLID_93_" transform="translate(32.176 19.318)">
      <path id="路径_171112" data-name="路径 171112" d="M35.919,22.84a.967.967,0,0,1-.653-.267A.95.95,0,0,1,35,21.92a.919.919,0,1,1,1.839,0,.952.952,0,0,1-.267.653A.968.968,0,0,1,35.919,22.84Z" transform="translate(-35 -21.012)" fill="#212529"/>
    </g>
    <g id="XMLID_98_" transform="translate(32.176 37.708)">
      <path id="路径_171113" data-name="路径 171113" d="M35.919,42.84a.967.967,0,0,1-.653-.267.932.932,0,0,1,0-1.305.923.923,0,1,1,.653,1.572Z" transform="translate(-35 -41.016)" fill="#212529"/>
    </g>
    <g id="XMLID_97_" transform="translate(32.176 34.027)">
      <path id="路径_171114" data-name="路径 171114" d="M35.919,38.84a.911.911,0,1,1,.653-.267A.967.967,0,0,1,35.919,38.84Z" transform="translate(-35 -37.012)" fill="#212529"/>
    </g>
    <g id="XMLID_108_" transform="translate(32.176 30.35)">
      <path id="路径_171115" data-name="路径 171115" d="M35.919,34.84A.911.911,0,0,1,35,33.92a.947.947,0,0,1,.267-.653.962.962,0,0,1,1.305,0,.949.949,0,0,1,.267.653.911.911,0,0,1-.919.919Z" transform="translate(-35 -33.012)" fill="#212529"/>
    </g>
    <g id="XMLID_110_" transform="translate(32.176 48.737)">
      <path id="路径_171116" data-name="路径 171116" d="M35.919,54.84a.951.951,0,0,1-.653-.267.923.923,0,1,1,1.572-.653.952.952,0,0,1-.267.653A.968.968,0,0,1,35.919,54.84Z" transform="translate(-35 -53.012)" fill="#212529"/>
    </g>
    <g id="XMLID_109_" transform="translate(32.176 45.059)">
      <path id="路径_171117" data-name="路径 171117" d="M35.919,50.84a.967.967,0,0,1-.653-.267A.95.95,0,0,1,35,49.92a.919.919,0,1,1,1.839,0,.952.952,0,0,1-.267.653A.968.968,0,0,1,35.919,50.84Z" transform="translate(-35 -49.012)" fill="#212529"/>
    </g>
    <g id="XMLID_111_" transform="translate(32.176 41.382)">
      <path id="路径_171118" data-name="路径 171118" d="M35.919,46.84a.923.923,0,0,1-.653-1.572.923.923,0,1,1,.653,1.572Z" transform="translate(-35 -45.012)" fill="#212529"/>
    </g>
    <g id="XMLID_213_" transform="translate(24.821 26.672)">
      <path id="路径_171119" data-name="路径 171119" d="M27.919,30.84a.922.922,0,1,1,.653-1.572.949.949,0,0,1,.267.653.911.911,0,0,1-.919.919Z" transform="translate(-27 -29.012)" fill="#212529"/>
    </g>
    <g id="XMLID_141_" transform="translate(24.821 22.995)">
      <path id="路径_171120" data-name="路径 171120" d="M27.919,26.84a.911.911,0,1,1,.653-.267A.967.967,0,0,1,27.919,26.84Z" transform="translate(-27 -25.012)" fill="#212529"/>
    </g>
    <g id="XMLID_140_" transform="translate(24.821 19.318)">
      <path id="路径_171121" data-name="路径 171121" d="M27.919,22.84a.922.922,0,1,1,.653-1.572.932.932,0,0,1,0,1.305A.968.968,0,0,1,27.919,22.84Z" transform="translate(-27 -21.012)" fill="#212529"/>
    </g>
    <g id="XMLID_138_" transform="translate(24.821 37.704)">
      <path id="路径_171122" data-name="路径 171122" d="M27.919,42.84a.922.922,0,1,1,.653-1.572.919.919,0,0,1-.653,1.572Z" transform="translate(-27 -41.012)" fill="#212529"/>
    </g>
    <g id="XMLID_129_" transform="translate(24.821 34.027)">
      <path id="路径_171123" data-name="路径 171123" d="M27.919,38.84A.911.911,0,0,1,27,37.92a.947.947,0,0,1,.267-.653.923.923,0,1,1,.653,1.572Z" transform="translate(-27 -37.012)" fill="#212529"/>
    </g>
    <g id="XMLID_124_" transform="translate(24.821 30.35)">
      <path id="路径_171124" data-name="路径 171124" d="M27.919,34.84A.911.911,0,0,1,27,33.92a.947.947,0,0,1,.267-.653.962.962,0,0,1,1.305,0,.949.949,0,0,1,.267.653.911.911,0,0,1-.919.919Z" transform="translate(-27 -33.012)" fill="#212529"/>
    </g>
    <g id="XMLID_122_" transform="translate(24.821 48.737)">
      <path id="路径_171125" data-name="路径 171125" d="M27.919,54.84a.951.951,0,0,1-.653-.267.923.923,0,1,1,1.572-.653.952.952,0,0,1-.267.653A.968.968,0,0,1,27.919,54.84Z" transform="translate(-27 -53.012)" fill="#212529"/>
    </g>
    <g id="XMLID_113_" transform="translate(24.821 45.059)">
      <path id="路径_171126" data-name="路径 171126" d="M27.919,50.84a.967.967,0,0,1-.653-.267A.95.95,0,0,1,27,49.92a.919.919,0,1,1,1.839,0,.952.952,0,0,1-.267.653A.968.968,0,0,1,27.919,50.84Z" transform="translate(-27 -49.012)" fill="#212529"/>
    </g>
    <g id="XMLID_236_" transform="translate(24.821 41.382)">
      <path id="路径_171127" data-name="路径 171127" d="M27.919,46.84a.911.911,0,1,1,.653-.267A.951.951,0,0,1,27.919,46.84Z" transform="translate(-27 -45.012)" fill="#212529"/>
    </g>
    <g id="XMLID_242_" transform="translate(10.112 29.419)">
      <path id="路径_171128" data-name="路径 171128" d="M11.919,35.677A.919.919,0,0,1,11,34.758V32.919a.919.919,0,1,1,1.839,0v1.839A.919.919,0,0,1,11.919,35.677Z" transform="translate(-11 -32)" fill="#212529"/>
    </g>
    <g id="XMLID_244_" transform="translate(9.192 30.338)">
      <path id="路径_171129" data-name="路径 171129" d="M12.758,34.839H10.919a.919.919,0,1,1,0-1.839h1.839a.919.919,0,1,1,0,1.839Z" transform="translate(-10 -33)" fill="#212529"/>
    </g>
    <g id="XMLID_246_" transform="translate(14.708 16.548)">
      <path id="路径_171130" data-name="路径 171130" d="M16.919,21.677A.919.919,0,0,1,16,20.758V18.919a.919.919,0,0,1,1.839,0v1.839A.919.919,0,0,1,16.919,21.677Z" transform="translate(-16 -18)" fill="#212529"/>
    </g>
    <g id="XMLID_247_" transform="translate(13.789 17.467)">
      <path id="路径_171131" data-name="路径 171131" d="M17.758,20.839H15.919a.919.919,0,1,1,0-1.839h1.839a.919.919,0,1,1,0,1.839Z" transform="translate(-15 -19)" fill="#212529"/>
    </g>
    <g id="XMLID_393_" transform="translate(5.515 8.274)">
      <path id="路径_171132" data-name="路径 171132" d="M6.919,12.677A.919.919,0,0,1,6,11.758V9.919a.919.919,0,1,1,1.839,0v1.839A.919.919,0,0,1,6.919,12.677Z" transform="translate(-6 -9)" fill="#212529"/>
    </g>
    <g id="XMLID_394_" transform="translate(4.596 9.193)">
      <path id="路径_171133" data-name="路径 171133" d="M7.758,11.839H5.919a.919.919,0,1,1,0-1.839H7.758a.919.919,0,0,1,0,1.839Z" transform="translate(-5 -10)" fill="#212529"/>
    </g>
    <g id="XMLID_398_" transform="translate(45.966 8.274)">
      <path id="路径_171134" data-name="路径 171134" d="M50.919,12.677A.919.919,0,0,1,50,11.758V9.919a.919.919,0,1,1,1.839,0v1.839A.919.919,0,0,1,50.919,12.677Z" transform="translate(-50 -9)" fill="#212529"/>
    </g>
    <g id="XMLID_399_" transform="translate(45.047 9.193)">
      <path id="路径_171135" data-name="路径 171135" d="M51.758,11.839H49.919a.919.919,0,0,1,0-1.839h1.839a.919.919,0,0,1,0,1.839Z" transform="translate(-49 -10)" fill="#212529"/>
    </g>
    <g id="XMLID_404_" transform="translate(53.321 30.338)">
      <path id="路径_171136" data-name="路径 171136" d="M58.919,36.677A.919.919,0,0,1,58,35.758V33.919a.919.919,0,1,1,1.839,0v1.839A.919.919,0,0,1,58.919,36.677Z" transform="translate(-58 -33)" fill="#212529"/>
    </g>
    <g id="XMLID_408_" transform="translate(52.401 31.258)">
      <path id="路径_171137" data-name="路径 171137" d="M59.758,35.839H57.919a.919.919,0,1,1,0-1.839h1.839a.919.919,0,1,1,0,1.839Z" transform="translate(-57 -34)" fill="#212529"/>
    </g>
    <g id="XMLID_412_" transform="translate(42.289 22.984)">
      <path id="路径_171138" data-name="路径 171138" d="M46.919,28.677A.919.919,0,0,1,46,27.758V25.919a.919.919,0,0,1,1.839,0v1.839A.919.919,0,0,1,46.919,28.677Z" transform="translate(-46 -25)" fill="#212529"/>
    </g>
    <g id="XMLID_413_" transform="translate(41.369 23.903)">
      <path id="路径_171139" data-name="路径 171139" d="M47.758,27.839H45.919a.919.919,0,0,1,0-1.839h1.839a.919.919,0,0,1,0,1.839Z" transform="translate(-45 -26)" fill="#212529"/>
    </g>
    <g id="XMLID_414_" transform="translate(15.628 27.592)">
      <path id="路径_171140" data-name="路径 171140" d="M17.919,31.84A.911.911,0,0,1,17,30.92a.947.947,0,0,1,.267-.653.962.962,0,0,1,1.305,0,.949.949,0,0,1,.267.653.911.911,0,0,1-.919.919Z" transform="translate(-17 -30.012)" fill="#212529"/>
    </g>
    <g id="XMLID_415_" transform="translate(6.434 22.076)">
      <path id="路径_171141" data-name="路径 171141" d="M7.919,25.84a.911.911,0,1,1,.653-.267A.928.928,0,0,1,7.919,25.84Z" transform="translate(-7 -24.012)" fill="#212529"/>
    </g>
    <g id="XMLID_490_" transform="translate(17.466 9.205)">
      <path id="路径_171142" data-name="路径 171142" d="M19.919,11.84A.911.911,0,0,1,19,10.92a.947.947,0,0,1,.267-.653.962.962,0,0,1,1.305,0,.949.949,0,0,1,.267.653.911.911,0,0,1-.919.919Z" transform="translate(-19 -10.012)" fill="#212529"/>
    </g>
    <g id="XMLID_491_" transform="translate(40.45 15.64)">
      <path id="路径_171143" data-name="路径 171143" d="M44.919,18.84A.911.911,0,0,1,44,17.92a.947.947,0,0,1,.267-.653.962.962,0,0,1,1.305,0,.933.933,0,0,1,.267.653.911.911,0,0,1-.919.919Z" transform="translate(-44 -17.012)" fill="#212529"/>
    </g>
    <g id="XMLID_509_" transform="translate(50.563 21.156)">
      <path id="路径_171144" data-name="路径 171144" d="M55.919,24.84a.911.911,0,1,1,.653-.267A.967.967,0,0,1,55.919,24.84Z" transform="translate(-55 -23.012)" fill="#212529"/>
    </g>
    <g id="XMLID_529_" transform="translate(44.127 31.269)">
      <path id="路径_171145" data-name="路径 171145" d="M48.919,35.84a.968.968,0,0,1-.653-.267A.95.95,0,0,1,48,34.92a.919.919,0,1,1,1.839,0,.911.911,0,0,1-.919.919Z" transform="translate(-48 -34.012)" fill="#212529"/>
    </g>
  </g>
</svg>
