<svg id="menu-icon-3" xmlns="http://www.w3.org/2000/svg" width="66" height="66" viewBox="0 0 66 66">
  <rect id="矩形_106963" data-name="矩形 106963" width="66" height="66" fill="#fff" opacity="0"/>
  <g id="XMLID_163_" transform="translate(5.539 3.693)">
    <path id="联合_35" data-name="联合 35" d="M1392.692-1416.692a4.616,4.616,0,0,1,4.616-4.615,4.616,4.616,0,0,1,4.616,4.615,4.616,4.616,0,0,1-4.616,4.616A4.616,4.616,0,0,1,1392.692-1416.692Zm19.386-8.308a4.615,4.615,0,0,1,4.616-4.615,4.615,4.615,0,0,1,4.615,4.615,4.616,4.616,0,0,1-4.615,4.616A4.616,4.616,0,0,1,1412.078-1425Zm-28.617-11.076a3.693,3.693,0,0,1,3.693-3.693,3.693,3.693,0,0,1,3.693,3.693,3.692,3.692,0,0,1-3.693,3.692A3.692,3.692,0,0,1,1383.461-1436.076Zm5.539-16.616a4.616,4.616,0,0,1,4.616-4.616,4.616,4.616,0,0,1,4.616,4.616,4.616,4.616,0,0,1-4.616,4.615A4.616,4.616,0,0,1,1389-1452.692Zm15.694-7.385a4.615,4.615,0,0,1,4.615-4.615,4.616,4.616,0,0,1,4.616,4.615,4.616,4.616,0,0,1-4.616,4.616A4.616,4.616,0,0,1,1404.694-1460.077Z" transform="translate(-1365 1467.462)" fill="#ffac6a"/>
    <g id="XMLID_271_" transform="translate(39.694 19.385)">
      <path id="路径_171189" data-name="路径 171189" d="M49.616,30.233a4.616,4.616,0,1,1,4.616-4.616A4.621,4.621,0,0,1,49.616,30.233Zm0-7.385a2.769,2.769,0,1,0,2.769,2.769A2.772,2.772,0,0,0,49.616,22.849Z" transform="translate(-45 -21.002)" fill="#212529"/>
    </g>
    <g id="XMLID_267_" transform="translate(36.924)">
      <path id="路径_171190" data-name="路径 171190" d="M47.539,11.081a5.539,5.539,0,1,1,5.539-5.538A5.545,5.545,0,0,1,47.539,11.081Zm0-9.231a3.692,3.692,0,1,0,3.693,3.693A3.7,3.7,0,0,0,47.539,1.85Z" transform="translate(-42 -0.003)" fill="#212529"/>
    </g>
    <g id="XMLID_262_" transform="translate(21.231 7.385)">
      <path id="路径_171191" data-name="路径 171191" d="M30.539,19.08a5.539,5.539,0,1,1,5.539-5.538A5.545,5.545,0,0,1,30.539,19.08Zm0-9.231a3.692,3.692,0,1,0,3.693,3.693A3.7,3.7,0,0,0,30.539,9.849Z" transform="translate(-25 -8.003)" fill="#212529"/>
    </g>
    <g id="XMLID_245_" transform="translate(44.309 35.078)">
      <path id="路径_171192" data-name="路径 171192" d="M55.539,49.079a5.539,5.539,0,1,1,5.539-5.539A5.545,5.545,0,0,1,55.539,49.079Zm0-9.231a3.692,3.692,0,1,0,3.693,3.692A3.7,3.7,0,0,0,55.539,39.848Z" transform="translate(-50 -38.001)" fill="#212529"/>
    </g>
    <g id="XMLID_239_" transform="translate(24.923 43.386)">
      <path id="路径_171193" data-name="路径 171193" d="M34.539,58.078a5.539,5.539,0,1,1,5.539-5.539A5.545,5.545,0,0,1,34.539,58.078Zm0-9.231a3.692,3.692,0,1,0,3.693,3.692A3.7,3.7,0,0,0,34.539,48.847Z" transform="translate(-29 -47.001)" fill="#212529"/>
    </g>
    <g id="XMLID_237_" transform="translate(31.385 8.87)">
      <path id="路径_171194" data-name="路径 171194" d="M36.923,31.279A.924.924,0,0,1,36.073,30l8.354-19.819a.923.923,0,1,1,1.7.717L37.774,30.713A.924.924,0,0,1,36.923,31.279Z" transform="translate(-36 -9.612)" fill="#212529"/>
    </g>
    <g id="XMLID_233_" transform="translate(27.305 16.385)">
      <path id="路径_171195" data-name="路径 171195" d="M36.583,31.9a.924.924,0,0,1-.876-.633l-4.08-12.305a.923.923,0,1,1,1.753-.581L37.46,30.69a.924.924,0,0,1-.876,1.214Z" transform="translate(-31.58 -17.753)" fill="#212529"/>
    </g>
    <g id="XMLID_216_" transform="translate(23.077 28.635)">
      <path id="路径_171196" data-name="路径 171196" d="M36.231,32.924h-.006l-8.308-.055a.923.923,0,0,1,.006-1.846h.006l8.308.055a.923.923,0,0,1-.006,1.846Z" transform="translate(-27 -31.022)" fill="#212529"/>
    </g>
    <g id="XMLID_212_" transform="translate(29.982 28.69)">
      <path id="路径_171197" data-name="路径 171197" d="M35.4,47.651c-.029,0-.059,0-.088,0a.924.924,0,0,1-.832-1.007l1.4-14.723a.923.923,0,1,1,1.838.175l-1.4,14.723A.923.923,0,0,1,35.4,47.651Z" transform="translate(-34.48 -31.081)" fill="#212529"/>
    </g>
    <g id="XMLID_211_" transform="translate(31.385 28.691)">
      <path id="路径_171198" data-name="路径 171198" d="M50.548,41.476a.918.918,0,0,1-.49-.141L36.433,32.787a.923.923,0,1,1,.981-1.564l13.625,8.548a.923.923,0,0,1-.491,1.705Z" transform="translate(-36 -31.083)" fill="#212529"/>
    </g>
    <g id="XMLID_202_" transform="translate(31.385 24.638)">
      <path id="路径_171199" data-name="路径 171199" d="M36.924,32.591a.923.923,0,0,1-.392-1.759l8.659-4.053a.923.923,0,1,1,.783,1.672L37.314,32.5A.922.922,0,0,1,36.924,32.591Z" transform="translate(-36 -26.692)" fill="#212529"/>
    </g>
    <g id="XMLID_199_" transform="translate(15.692 24.924)">
      <path id="路径_171200" data-name="路径 171200" d="M23.616,36.233a4.616,4.616,0,1,1,4.616-4.615A4.621,4.621,0,0,1,23.616,36.233Zm0-7.385a2.769,2.769,0,1,0,2.769,2.769A2.772,2.772,0,0,0,23.616,28.848Z" transform="translate(-19 -27.002)" fill="#212529"/>
    </g>
    <g id="XMLID_819_" transform="translate(47.651 8.748)">
      <path id="路径_171201" data-name="路径 171201" d="M59.085,35.652a.924.924,0,0,1-.874-1.222A24.226,24.226,0,0,0,53.837,11a.923.923,0,1,1,1.412-1.189,25.7,25.7,0,0,1,5.945,13.806,26.2,26.2,0,0,1-1.235,11.412A.924.924,0,0,1,59.085,35.652Z" transform="translate(-53.62 -9.48)" fill="#212529"/>
    </g>
    <g id="XMLID_816_" transform="translate(0 0.005)">
      <path id="路径_171202" data-name="路径 171202" d="M43.533,59.082H19.54a.923.923,0,0,1-.923-.923V51.706c0-1.343-.577-2.778-2.2-2.778H14.6c-3.334,0-7.062-2.764-7.062-6.462V34.157h-2.8a2.718,2.718,0,0,1-2.309-1.28A2.766,2.766,0,0,1,2.275,30.2L9.492,14.858a26.71,26.71,0,0,1,3.5-5.66,25.393,25.393,0,0,1,11.362-7.92A23.957,23.957,0,0,1,38.37.853a.923.923,0,1,1-.476,1.784,22.128,22.128,0,0,0-12.94.387,23.551,23.551,0,0,0-10.536,7.349,24.9,24.9,0,0,0-3.257,5.273L3.943,30.987a.925.925,0,0,0,.051.906.876.876,0,0,0,.747.418h3.72a.923.923,0,0,1,.923.923v9.231c0,2.6,2.8,4.616,5.216,4.616H16.42c2.38,0,4.043,1.9,4.043,4.625v5.53H42.631A23.234,23.234,0,0,1,46.367,45.8a.923.923,0,1,1,1.55,1,21.2,21.2,0,0,0-3.461,11.351A.923.923,0,0,1,43.533,59.082Z" transform="translate(-2.002 -0.009)" fill="#212529"/>
    </g>
  </g>
</svg>
