<svg id="menu-icon-4" xmlns="http://www.w3.org/2000/svg" width="66" height="66" viewBox="0 0 66 66">
  <rect id="矩形_106964" data-name="矩形 106964" width="66" height="66" fill="#fff" opacity="0"/>
  <g id="XMLID_1341_" transform="translate(3.694 4.618)">
    <g id="XMLID_1321_" transform="translate(6.465 13.841)">
      <path id="路径_171073" data-name="路径 171073" d="M42.093,49.246,7,36.779V28.467L42.093,16Z" transform="translate(-7 -16)" fill="#ffac6a"/>
    </g>
    <g id="XMLID_785_" transform="translate(43.405 4.606)">
      <path id="路径_171074" data-name="路径 171074" d="M50.694,52.175A3.7,3.7,0,0,1,47,48.481V9.694a3.694,3.694,0,1,1,7.388,0V48.481A3.7,3.7,0,0,1,50.694,52.175Zm0-44.328a1.849,1.849,0,0,0-1.847,1.847V48.481a1.847,1.847,0,1,0,3.694,0V9.694A1.849,1.849,0,0,0,50.694,7.847Z" transform="translate(-47 -6)" fill="#212529"/>
    </g>
    <g id="XMLID_714_" transform="translate(0 20.306)">
      <path id="路径_171075" data-name="路径 171075" d="M5.541,37.776a.951.951,0,0,1-.181-.018L.742,36.835A.924.924,0,0,1,0,35.929V24.847a.924.924,0,0,1,.742-.905l4.618-.924a.923.923,0,0,1,1.1.905V36.853a.924.924,0,0,1-.924.924Zm-3.694-2.6,2.771.554V25.05L1.847,25.6Z" transform="translate(0 -23.001)" fill="#212529"/>
    </g>
    <g id="XMLID_715_" transform="translate(9.235 33.041)">
      <path id="路径_171076" data-name="路径 171076" d="M16.529,54.53a4.311,4.311,0,0,1-4.235-3.554l-2.281-13.1a.924.924,0,0,1,1.82-.317l2.281,13.1a2.453,2.453,0,0,0,.841,1.447,2.5,2.5,0,0,0,3.542-.417,2.423,2.423,0,0,0,.372-2.172l-2.881-9.411a.923.923,0,0,1,1.766-.541l2.881,9.411a4.294,4.294,0,0,1-4.105,5.553Z" transform="translate(-10 -36.79)" fill="#212529"/>
    </g>
    <g id="XMLID_717_" transform="translate(4.618 8.299)">
      <path id="路径_171077" data-name="路径 171077" d="M44.711,48.787a.91.91,0,0,1-.31-.054L5.613,34.88A.922.922,0,0,1,5,34.011V24.776a.922.922,0,0,1,.613-.869L44.4,10.054a.923.923,0,0,1,.62,1.739L6.847,25.427V33.36L45.021,46.994a.923.923,0,0,1-.31,1.793Z" transform="translate(-5 -9.999)" fill="#212529"/>
    </g>
    <g id="XMLID_716_" transform="translate(25.075 16.627)">
      <path id="路径_171078" data-name="路径 171078" d="M28.076,23.4a.923.923,0,0,1-.311-1.793l7.1-2.536a.923.923,0,0,1,.62,1.739l-7.1,2.536A.919.919,0,0,1,28.076,23.4Z" transform="translate(-27.152 -19.017)" fill="#212529"/>
    </g>
    <g id="XMLID_719_" transform="translate(35.2 15.321)">
      <path id="路径_171079" data-name="路径 171079" d="M39.04,19.677a.924.924,0,0,1-.31-1.794l.638-.227a.924.924,0,1,1,.62,1.741l-.638.227A.935.935,0,0,1,39.04,19.677Z" transform="translate(-38.116 -17.603)" fill="#212529"/>
    </g>
    <g id="XMLID_720_" transform="translate(8.312 20.832)">
      <path id="路径_171080" data-name="路径 171080" d="M9.924,29.508A.923.923,0,0,1,9,28.585V24.494a.924.924,0,0,1,1.847,0v4.091A.923.923,0,0,1,9.924,29.508Z" transform="translate(-9 -23.57)" fill="#212529"/>
    </g>
    <g id="XMLID_723_" transform="translate(12.006 19.511)">
      <path id="路径_171081" data-name="路径 171081" d="M13.924,29.4A.923.923,0,0,1,13,28.475V23.063a.924.924,0,1,1,1.847,0v5.412A.923.923,0,0,1,13.924,29.4Z" transform="translate(-13 -22.14)" fill="#212529"/>
    </g>
    <g id="XMLID_747_" transform="translate(15.7 18.191)">
      <path id="路径_171082" data-name="路径 171082" d="M17.923,29.289A.923.923,0,0,1,17,28.366V21.633a.924.924,0,0,1,1.847,0v6.732A.923.923,0,0,1,17.923,29.289Z" transform="translate(-17 -20.71)" fill="#212529"/>
    </g>
    <g id="XMLID_721_" transform="translate(52.64 26.77)">
      <path id="路径_171083" data-name="路径 171083" d="M61.618,31.847H57.923a.924.924,0,0,1,0-1.847h3.694a.924.924,0,0,1,0,1.847Z" transform="translate(-57 -30)" fill="#212529"/>
    </g>
    <g id="XMLID_722_" transform="translate(52.639 20.305)">
      <path id="路径_171084" data-name="路径 171084" d="M57.923,25.77a.923.923,0,0,1-.223-1.819l3.694-.924a.923.923,0,1,1,.447,1.791l-3.694.924A.917.917,0,0,1,57.923,25.77Z" transform="translate(-57 -22.999)" fill="#212529"/>
    </g>
    <g id="XMLID_748_" transform="translate(52.639 32.311)">
      <path id="路径_171085" data-name="路径 171085" d="M61.618,38.77a.917.917,0,0,1-.225-.028L57.7,37.819a.923.923,0,0,1,.447-1.791l3.694.924a.923.923,0,0,1-.223,1.819Z" transform="translate(-57 -36)" fill="#212529"/>
    </g>
    <g id="XMLID_771_" transform="translate(52.639 13.841)">
      <path id="路径_171086" data-name="路径 171086" d="M57.924,19.694a.924.924,0,0,1-.414-1.75L61.2,16.1a.924.924,0,0,1,.826,1.652L58.337,19.6A.925.925,0,0,1,57.924,19.694Z" transform="translate(-57 -16)" fill="#212529"/>
    </g>
    <g id="XMLID_786_" transform="translate(52.639 37.852)">
      <path id="路径_171087" data-name="路径 171087" d="M61.617,45.694a.924.924,0,0,1-.412-.1L57.51,43.75a.924.924,0,1,1,.826-1.652l3.694,1.847a.924.924,0,0,1-.414,1.75Z" transform="translate(-57 -42)" fill="#212529"/>
    </g>
    <g id="XMLID_784_" transform="translate(52.64 0.912)">
      <path id="路径_171088" data-name="路径 171088" d="M57.923,5.694A.923.923,0,0,1,57,4.771V2.924a.924.924,0,1,1,1.847,0V4.771A.923.923,0,0,1,57.923,5.694Z" transform="translate(-57 -2)" fill="#212529"/>
    </g>
    <g id="XMLID_787_" transform="translate(51.716 1.836)">
      <path id="路径_171089" data-name="路径 171089" d="M58.771,4.847H56.923a.924.924,0,0,1,0-1.847h1.847a.924.924,0,0,1,0,1.847Z" transform="translate(-56 -3)" fill="#212529"/>
    </g>
    <g id="XMLID_791_" transform="translate(50.793 53.552)">
      <path id="路径_171090" data-name="路径 171090" d="M55.924,62.694A.923.923,0,0,1,55,61.771V59.923a.924.924,0,0,1,1.847,0v1.847A.923.923,0,0,1,55.924,62.694Z" transform="translate(-55 -59)" fill="#212529"/>
    </g>
    <g id="XMLID_790_" transform="translate(49.869 54.475)">
      <path id="路径_171091" data-name="路径 171091" d="M56.77,61.847H54.924a.924.924,0,1,1,0-1.847H56.77a.924.924,0,1,1,0,1.847Z" transform="translate(-54 -60)" fill="#212529"/>
    </g>
    <g id="XMLID_792_" transform="translate(56.334 48.022)">
      <path id="路径_171092" data-name="路径 171092" d="M61.924,54.848a.915.915,0,1,1,.656-.268A.972.972,0,0,1,61.924,54.848Z" transform="translate(-61 -53.012)" fill="#212529"/>
    </g>
    <g id="XMLID_793_" transform="translate(55.41 8.312)">
      <path id="路径_171093" data-name="路径 171093" d="M60.924,11.848A.915.915,0,0,1,60,10.924a.949.949,0,0,1,.268-.656.927.927,0,1,1,.656,1.579Z" transform="translate(-60 -10.012)" fill="#212529"/>
    </g>
    <g id="XMLID_794_" transform="translate(46.175)">
      <path id="路径_171094" data-name="路径 171094" d="M50.924,2.848a.972.972,0,0,1-.656-.268.936.936,0,0,1,0-1.311.967.967,0,0,1,1.311,0,.972.972,0,0,1,.268.656.974.974,0,0,1-.268.656A.974.974,0,0,1,50.924,2.848Z" transform="translate(-50 -1.012)" fill="#212529"/>
    </g>
    <g id="XMLID_797_" transform="translate(36.017 48.011)">
      <path id="路径_171095" data-name="路径 171095" d="M39.923,56.694A.923.923,0,0,1,39,55.771V53.924a.924.924,0,0,1,1.847,0v1.847A.923.923,0,0,1,39.923,56.694Z" transform="translate(-39 -53)" fill="#212529"/>
    </g>
    <g id="XMLID_796_" transform="translate(35.093 48.934)">
      <path id="路径_171096" data-name="路径 171096" d="M40.771,55.847H38.924a.924.924,0,1,1,0-1.847h1.847a.924.924,0,0,1,0,1.847Z" transform="translate(-38 -54)" fill="#212529"/>
    </g>
    <g id="XMLID_798_" transform="translate(41.558 53.563)">
      <path id="路径_171097" data-name="路径 171097" d="M45.924,60.848a.915.915,0,1,1,.656-.268A.972.972,0,0,1,45.924,60.848Z" transform="translate(-45 -59.012)" fill="#212529"/>
    </g>
    <g id="XMLID_799_" transform="translate(39.711 4.618)">
      <path id="路径_171098" data-name="路径 171098" d="M43.924,7.848a.927.927,0,0,1-.656-1.579.924.924,0,0,1,1.579.656.915.915,0,0,1-.924.924Z" transform="translate(-43 -6.012)" fill="#212529"/>
    </g>
    <g id="XMLID_800_" transform="translate(35.093 0.924)">
      <path id="路径_171099" data-name="路径 171099" d="M38.924,3.848A.915.915,0,0,1,38,2.924a.9.9,0,0,1,.277-.656.955.955,0,0,1,1.3,0,.936.936,0,0,1,0,1.311A.957.957,0,0,1,38.924,3.848Z" transform="translate(-38 -2.012)" fill="#212529"/>
    </g>
  </g>
</svg>
