<svg id="menu-icon-1" xmlns="http://www.w3.org/2000/svg" width="66" height="66" viewBox="0 0 66 66">
  <rect id="矩形_106960" data-name="矩形 106960" width="66" height="66" fill="#212529" opacity="0"/>
  <g id="XMLID_1179_" transform="translate(4.554 6.472)">
    <g id="组_94132" data-name="组 94132" transform="translate(6.376 4.554)">
      <path id="联合_34" data-name="联合 34" d="M2065.771-1466.561a5.465,5.465,0,0,1,5.465-5.466,5.466,5.466,0,0,1,5.466,5.466,5.465,5.465,0,0,1-5.466,5.465A5.465,5.465,0,0,1,2065.771-1466.561Zm-16.851,0a5.466,5.466,0,0,1,5.465-5.466,5.466,5.466,0,0,1,5.466,5.466,5.466,5.466,0,0,1-5.466,5.465A5.465,5.465,0,0,1,2048.92-1466.561Zm-16.851,0a5.465,5.465,0,0,1,5.465-5.466,5.466,5.466,0,0,1,5.466,5.466,5.465,5.465,0,0,1-5.466,5.465A5.465,5.465,0,0,1,2032.07-1466.561Z" transform="translate(-2032.07 1472.026)" fill="#ffac6a"/>
    </g>
    <g id="XMLID_1114_" transform="translate(22.316 0)">
      <path id="路径_170971" data-name="路径 170971" d="M31.376,15.945a6.473,6.473,0,1,1,6.376-6.473A6.433,6.433,0,0,1,31.376,15.945Zm0-11.1A4.624,4.624,0,1,0,35.93,9.473,4.595,4.595,0,0,0,31.376,4.849Z" transform="translate(-25 -3)" fill="#212529"/>
    </g>
    <g id="XMLID_1113_" transform="translate(16.76 12.385)">
      <path id="路径_170972" data-name="路径 170972" d="M19.911,39.116A.917.917,0,0,1,19,38.192V22.473A6.433,6.433,0,0,1,25.376,16h8.2a.925.925,0,0,1,0,1.849h-8.2a4.6,4.6,0,0,0-4.554,4.623V38.192A.917.917,0,0,1,19.911,39.116Z" transform="translate(-19 -16)" fill="#212529"/>
    </g>
    <g id="XMLID_1112_" transform="translate(20.474 22.192)">
      <path id="路径_170973" data-name="路径 170973" d="M36.663,58.363H23.911A.917.917,0,0,1,23,57.438V26.925a.911.911,0,1,1,1.822,0V56.513H36.663a.925.925,0,0,1,0,1.849Z" transform="translate(-23 -26)" fill="#212529"/>
    </g>
    <g id="XMLID_1111_" transform="translate(27.781 34.212)">
      <path id="路径_170974" data-name="路径 170974" d="M31.911,59.342A.917.917,0,0,1,31,58.418V39.925a.911.911,0,1,1,1.822,0V58.418A.917.917,0,0,1,31.911,59.342Z" transform="translate(-31 -39)" fill="#212529"/>
    </g>
    <g id="XMLID_1110_" transform="translate(27.781 25.423)">
      <path id="路径_170975" data-name="路径 170975" d="M31.911,31.85a.951.951,0,0,1-.647-.268.948.948,0,0,1,0-1.313.943.943,0,0,1,1.293,0,.962.962,0,0,1,.264.656.983.983,0,0,1-.264.656A.953.953,0,0,1,31.911,31.85Z" transform="translate(-31 -30.012)" fill="#212529"/>
    </g>
    <g id="XMLID_1109_" transform="translate(27.781 21.658)">
      <path id="路径_170976" data-name="路径 170976" d="M31.911,27.85a.912.912,0,0,1-.647-.268.948.948,0,0,1,0-1.313.943.943,0,0,1,1.293,0,.948.948,0,0,1,0,1.313A.913.913,0,0,1,31.911,27.85Z" transform="translate(-31 -26.012)" fill="#212529"/>
    </g>
    <g id="XMLID_1108_" transform="translate(27.781 17.894)">
      <path id="路径_170977" data-name="路径 170977" d="M31.911,23.85a.951.951,0,0,1-.647-.268.948.948,0,0,1,0-1.313.922.922,0,0,1,1.293,1.313A.953.953,0,0,1,31.911,23.85Z" transform="translate(-31 -22.012)" fill="#212529"/>
    </g>
    <g id="XMLID_1106_" transform="translate(39.167 0)">
      <path id="路径_170978" data-name="路径 170978" d="M49.376,15.945a6.473,6.473,0,1,1,6.376-6.473A6.433,6.433,0,0,1,49.376,15.945Zm0-11.1A4.624,4.624,0,1,0,53.93,9.473,4.595,4.595,0,0,0,49.376,4.849Z" transform="translate(-43 -3)" fill="#212529"/>
    </g>
    <g id="XMLID_1105_" transform="translate(33.701 12.385)">
      <path id="路径_170979" data-name="路径 170979" d="M59.771,39.116a.917.917,0,0,1-.911-.925V22.473a4.6,4.6,0,0,0-4.554-4.623H43.376a4.6,4.6,0,0,0-4.554,4.623V38.192a.911.911,0,1,1-1.822,0V22.473A6.433,6.433,0,0,1,43.376,16h10.93a6.433,6.433,0,0,1,6.376,6.473V38.192A.917.917,0,0,1,59.771,39.116Z" transform="translate(-37 -16)" fill="#212529"/>
    </g>
    <g id="XMLID_1104_" transform="translate(37.345 22.192)">
      <path id="路径_170980" data-name="路径 170980" d="M56.484,58.363H41.911A.917.917,0,0,1,41,57.438V26.925a.911.911,0,1,1,1.822,0V56.513H55.574V26.925a.911.911,0,1,1,1.822,0V57.438A.917.917,0,0,1,56.484,58.363Z" transform="translate(-41 -26)" fill="#212529"/>
    </g>
    <g id="XMLID_1103_" transform="translate(44.45 34.212)">
      <path id="路径_170981" data-name="路径 170981" d="M49.911,59.342A.917.917,0,0,1,49,58.418V39.925a.911.911,0,1,1,1.822,0V58.418A.917.917,0,0,1,49.911,59.342Z" transform="translate(-49 -39)" fill="#212529"/>
    </g>
    <g id="XMLID_1102_" transform="translate(44.45 25.426)">
      <path id="路径_170982" data-name="路径 170982" d="M49.911,31.851a.951.951,0,0,1-.647-.268A.978.978,0,0,1,49,30.926a.911.911,0,0,1,1.558-.656.948.948,0,0,1,0,1.313A.953.953,0,0,1,49.911,31.851Z" transform="translate(-49 -30.016)" fill="#212529"/>
    </g>
    <g id="XMLID_1101_" transform="translate(44.45 21.658)">
      <path id="路径_170983" data-name="路径 170983" d="M49.911,27.85a.951.951,0,0,1-.647-.268A.978.978,0,0,1,49,26.926a.958.958,0,0,1,.264-.656.943.943,0,0,1,1.293,0,.948.948,0,0,1,0,1.313A.953.953,0,0,1,49.911,27.85Z" transform="translate(-49 -26.012)" fill="#212529"/>
    </g>
    <g id="XMLID_1100_" transform="translate(44.45 17.894)">
      <path id="路径_170984" data-name="路径 170984" d="M49.911,23.85a.951.951,0,0,1-.647-.268.948.948,0,0,1,0-1.313.943.943,0,0,1,1.293,0,.948.948,0,0,1,0,1.313A.953.953,0,0,1,49.911,23.85Z" transform="translate(-49 -22.012)" fill="#212529"/>
    </g>
    <g id="XMLID_1098_" transform="translate(5.465 0)">
      <path id="路径_170985" data-name="路径 170985" d="M13.376,15.945a6.473,6.473,0,1,1,6.376-6.473A6.433,6.433,0,0,1,13.376,15.945Zm0-11.1A4.624,4.624,0,1,0,17.93,9.473,4.595,4.595,0,0,0,13.376,4.849Z" transform="translate(-7 -3)" fill="#212529"/>
    </g>
    <g id="XMLID_1096_" transform="translate(0 12.385)">
      <path id="路径_170986" data-name="路径 170986" d="M1.911,39.116A.917.917,0,0,1,1,38.192V22.473A6.433,6.433,0,0,1,7.376,16h8.2a.925.925,0,0,1,0,1.849h-8.2a4.6,4.6,0,0,0-4.554,4.623V38.192A.917.917,0,0,1,1.911,39.116Z" transform="translate(-1 -16)" fill="#212529"/>
    </g>
    <g id="XMLID_1095_" transform="translate(3.643 22.192)">
      <path id="路径_170987" data-name="路径 170987" d="M18.663,58.363H5.911A.917.917,0,0,1,5,57.438V26.925a.911.911,0,1,1,1.822,0V56.513H18.663a.925.925,0,0,1,0,1.849Z" transform="translate(-5 -26)" fill="#212529"/>
    </g>
    <g id="XMLID_1094_" transform="translate(11.112 34.212)">
      <path id="路径_170988" data-name="路径 170988" d="M13.911,59.342A.917.917,0,0,1,13,58.418V39.925a.911.911,0,1,1,1.822,0V58.418A.917.917,0,0,1,13.911,59.342Z" transform="translate(-13 -39)" fill="#212529"/>
    </g>
    <g id="XMLID_1093_" transform="translate(11.112 25.423)">
      <path id="路径_170989" data-name="路径 170989" d="M13.911,31.85a.951.951,0,0,1-.647-.268.948.948,0,0,1,0-1.313.943.943,0,0,1,1.293,0,.948.948,0,0,1,0,1.313A.953.953,0,0,1,13.911,31.85Z" transform="translate(-13 -30.012)" fill="#212529"/>
    </g>
    <g id="XMLID_1092_" transform="translate(11.112 21.658)">
      <path id="路径_170990" data-name="路径 170990" d="M13.911,27.85a.951.951,0,0,1-.647-.268.948.948,0,0,1,0-1.313.943.943,0,0,1,1.293,0,.948.948,0,0,1,0,1.313A.913.913,0,0,1,13.911,27.85Z" transform="translate(-13 -26.012)" fill="#212529"/>
    </g>
    <g id="XMLID_1091_" transform="translate(11.112 17.894)">
      <path id="路径_170991" data-name="路径 170991" d="M13.911,23.85a.951.951,0,0,1-.647-.268.948.948,0,0,1,0-1.313.943.943,0,0,1,1.293,0,.948.948,0,0,1,0,1.313A.953.953,0,0,1,13.911,23.85Z" transform="translate(-13 -22.012)" fill="#212529"/>
    </g>
    <g id="XMLID_1088_" transform="translate(37.345 49.007)">
      <path id="路径_170992" data-name="路径 170992" d="M56.484,56.849H41.911a.925.925,0,0,1,0-1.849H56.484a.925.925,0,0,1,0,1.849Z" transform="translate(-41 -55)" fill="#212529"/>
    </g>
    <g id="XMLID_1087_" transform="translate(20.474 49.007)">
      <path id="路径_170993" data-name="路径 170993" d="M36.663,56.849H23.911a.925.925,0,0,1,0-1.849H36.663a.925.925,0,0,1,0,1.849Z" transform="translate(-23 -55)" fill="#212529"/>
    </g>
    <g id="XMLID_1178_" transform="translate(3.643 49.007)">
      <path id="路径_170994" data-name="路径 170994" d="M18.663,56.849H5.911a.925.925,0,0,1,0-1.849H18.663a.925.925,0,0,1,0,1.849Z" transform="translate(-5 -55)" fill="#212529"/>
    </g>
  </g>
</svg>
