<svg id="tscm_logo" xmlns="http://www.w3.org/2000/svg" width="383" height="92" viewBox="0 0 383 92">
  <rect id="矩形_49127" data-name="矩形 49127" width="383" height="92" fill="#fff" opacity="0.005"/>
  <g id="组_94014" data-name="组 94014" transform="translate(13.405 7.667)">
    <path id="路径_170935" data-name="路径 170935" d="M11.6-7.61H1.343A.89.89,0,0,0,.374-6.6a.884.884,0,0,0,.969.991H5.008V6.748A1.305,1.305,0,0,0,6.462,8.181,1.312,1.312,0,0,0,7.936,6.748V-5.607H11.6a.884.884,0,0,0,.969-.991A.882.882,0,0,0,11.6-7.61ZM20.7-2.15a5,5,0,0,0-3.771-1.265A5.791,5.791,0,0,0,12.4-1.5,1.014,1.014,0,0,0,12.507-.02,1.071,1.071,0,0,0,14-.168a3.947,3.947,0,0,1,2.886-1.349,1.885,1.885,0,0,1,2,2.15V.844A6.4,6.4,0,0,0,17.5.76C13.982.8,11.686,2.383,11.686,4.85c0,2.045,1.348,3.331,3.56,3.331a4.2,4.2,0,0,0,3.813-1.94v.569a1.2,1.2,0,0,0,1.327,1.37c.864,0,1.264-.485,1.264-1.37V.718A3.955,3.955,0,0,0,20.7-2.15ZM18.89,4.218a3.525,3.525,0,0,1-2.97,1.94A1.37,1.37,0,0,1,14.4,4.66c-.021-1.033.822-2.024,3.118-2.108a8.767,8.767,0,0,1,1.369.063Zm7.331-9.171A1.662,1.662,0,0,0,27.948-6.64a1.66,1.66,0,0,0-1.727-1.729A1.719,1.719,0,0,0,24.451-6.64,1.724,1.724,0,0,0,26.221-4.954Zm0,13.135a1.29,1.29,0,0,0,1.453-1.413V-1.812a1.29,1.29,0,0,0-1.453-1.413,1.284,1.284,0,0,0-1.432,1.413V6.769A1.284,1.284,0,0,0,26.221,8.181Zm10.764-11.6a3.785,3.785,0,0,0-3.5,1.961v-.654a1.161,1.161,0,0,0-1.327-1.286,1.2,1.2,0,0,0-1.348,1.307V6.769a1.443,1.443,0,0,0,2.886,0V.8a2.72,2.72,0,0,1,2.486-2.256c1.159,0,1.854.886,1.854,2.446V6.769a1.433,1.433,0,0,0,2.865,0V.76C40.9-1.9,39.239-3.415,36.985-3.415ZM52.025-2.15a5,5,0,0,0-3.771-1.265A5.791,5.791,0,0,0,43.726-1.5,1.014,1.014,0,0,0,43.831-.02a1.071,1.071,0,0,0,1.5-.148,3.947,3.947,0,0,1,2.886-1.349,1.885,1.885,0,0,1,2,2.15V.844A6.4,6.4,0,0,0,48.823.76C45.306.8,43.01,2.383,43.01,4.85c0,2.045,1.348,3.331,3.56,3.331a4.2,4.2,0,0,0,3.813-1.94v.569a1.2,1.2,0,0,0,1.327,1.37c.864,0,1.264-.485,1.264-1.37V.718A3.955,3.955,0,0,0,52.025-2.15ZM50.214,4.218a3.525,3.525,0,0,1-2.97,1.94,1.37,1.37,0,0,1-1.517-1.5c-.021-1.033.822-2.024,3.118-2.108a8.767,8.767,0,0,1,1.369.063Zm11.8-7.632a3.785,3.785,0,0,0-3.5,1.961v-.654a1.161,1.161,0,0,0-1.327-1.286,1.2,1.2,0,0,0-1.348,1.307V6.769a1.443,1.443,0,0,0,2.886,0V.8A2.72,2.72,0,0,1,61.21-1.454c1.159,0,1.854.886,1.854,2.446V6.769a1.433,1.433,0,0,0,2.865,0V.76C65.928-1.9,64.264-3.415,62.01-3.415Zm20.749,11.6a6.738,6.738,0,0,0,4.382-1.265,1.167,1.167,0,0,0,.274-1.581,1.071,1.071,0,0,0-1.58-.105,4.7,4.7,0,0,1-2.928.886c-2.654,0-4.171-2.193-4.171-6.156,0-3.816,1.685-5.819,4.213-5.819A4.83,4.83,0,0,1,85.729-5a1.106,1.106,0,0,0,1.559-.253,1.031,1.031,0,0,0-.316-1.434,6.531,6.531,0,0,0-4.066-1.244c-4.487,0-7.183,3.12-7.183,7.864C75.724,5.251,78.293,8.181,82.759,8.181Zm13.355-11.6a3.653,3.653,0,0,0-3.307,1.687v-5.44a1.269,1.269,0,0,0-1.432-1.391,1.275,1.275,0,0,0-1.453,1.391V6.811a1.269,1.269,0,0,0,1.453,1.37,1.254,1.254,0,0,0,1.432-1.37V.7a2.716,2.716,0,0,1,2.486-2.045c1.2,0,1.854.8,1.854,2.277V6.811a1.412,1.412,0,0,0,2.823,0V.76C99.969-1.876,98.389-3.415,96.114-3.415Zm8.447-1.539a1.662,1.662,0,0,0,1.727-1.687,1.66,1.66,0,0,0-1.727-1.729,1.719,1.719,0,0,0-1.769,1.729A1.724,1.724,0,0,0,104.561-4.954Zm0,13.135a1.29,1.29,0,0,0,1.453-1.413V-1.812a1.29,1.29,0,0,0-1.453-1.413,1.284,1.284,0,0,0-1.432,1.413V6.769A1.284,1.284,0,0,0,104.561,8.181Zm7.31,0c1.116,0,2.359-.3,2.359-1.244,0-.527-.295-1.054-.822-1.054-.337,0-.484.127-.779.127-.421,0-.653-.379-.653-1.075v-12.1a1.3,1.3,0,0,0-1.453-1.413,1.284,1.284,0,0,0-1.432,1.413V4.913C109.09,7.19,109.891,8.181,111.871,8.181ZM124.594-8.411a1.3,1.3,0,0,0-1.453,1.434v4.7a3.875,3.875,0,0,0-2.8-1.139c-2.7,0-4.929,2.024-4.929,5.946,0,4.111,2.4,5.65,4.908,5.65a4.148,4.148,0,0,0,2.97-1.223A1.273,1.273,0,0,0,124.7,8.181a1.219,1.219,0,0,0,1.327-1.328V-6.957A1.3,1.3,0,0,0,124.594-8.411ZM120.971,6.221c-1.517,0-2.717-1.181-2.717-3.732,0-2.53,1.053-3.9,2.549-3.9A2.82,2.82,0,0,1,123.288.212V4.892A2.871,2.871,0,0,1,120.971,6.221Zm15.356-8.56c-.063-.78-.632-1.075-1.475-1.054A3.268,3.268,0,0,0,131.8-.653v-1.5a1.166,1.166,0,0,0-1.306-1.265,1.205,1.205,0,0,0-1.369,1.265V6.769a1.443,1.443,0,0,0,2.886,0V1.941A3.515,3.515,0,0,1,134.853-.99C135.8-1.1,136.412-1.369,136.328-2.339Zm6.277-1.1c-3.455,0-5.561,2.319-5.561,6.093,0,3.753,2.233,5.524,5.645,5.524a5.121,5.121,0,0,0,4.15-1.581.912.912,0,0,0-.063-1.307.97.97,0,0,0-1.306.063,3.679,3.679,0,0,1-2.633.907c-1.791,0-2.717-.949-2.886-3.163h6a1.456,1.456,0,0,0,1.664-1.6A4.817,4.817,0,0,0,142.6-3.436ZM144.711,1.2h-4.7c.253-1.708,1.116-2.783,2.591-2.783A2.3,2.3,0,0,1,144.922.992.189.189,0,0,1,144.711,1.2Zm11.333-4.617a3.785,3.785,0,0,0-3.5,1.961v-.654a1.161,1.161,0,0,0-1.327-1.286,1.2,1.2,0,0,0-1.348,1.307V6.769a1.443,1.443,0,0,0,2.886,0V.8a2.72,2.72,0,0,1,2.486-2.256c1.159,0,1.854.886,1.854,2.446V6.769a1.433,1.433,0,0,0,2.865,0V.76C159.962-1.9,158.3-3.415,156.044-3.415Zm7.5,2.256a3.707,3.707,0,0,0,2.8-3.879c0-1.37-.758-2.34-1.98-2.34a1.715,1.715,0,0,0-1.9,1.666,1.5,1.5,0,0,0,1.5,1.6.618.618,0,0,0,.4-.148c.084-.084.147-.042.147.105,0,.8-.569,1.307-1.517,1.644a.711.711,0,0,0-.463.928A.762.762,0,0,0,163.544-1.159Zm3.729,6.683a1.047,1.047,0,0,0,.19,1.455,6.386,6.386,0,0,0,4.108,1.2c2.275,0,4.318-.97,4.318-3.247,0-1.708-1.306-2.678-3.581-3.69-1.559-.7-2.191-1.075-2.191-1.687,0-.569.59-.991,1.517-.991a3.758,3.758,0,0,1,2.233.633,1.1,1.1,0,0,0,1.517-.169,1.009,1.009,0,0,0-.19-1.37,5.608,5.608,0,0,0-3.644-1.075c-2.528,0-4.276,1.244-4.276,3.057,0,1.708,1.285,2.635,3.413,3.563,1.664.738,2.275,1.244,2.275,1.9,0,.738-.548,1.1-1.706,1.1a4.841,4.841,0,0,1-2.654-.864A.935.935,0,0,0,167.272,5.525Zm17.863-.548a1.2,1.2,0,0,0,.19,1.623,6.784,6.784,0,0,0,4.761,1.581c3.413,0,5.414-1.623,5.414-4.364,0-2.045-1.18-3.289-4.424-5-2.465-1.307-3.012-2.066-2.991-3.1.021-.949.864-1.6,2.212-1.6a4.744,4.744,0,0,1,2.886.949,1.092,1.092,0,0,0,1.6-.19,1.067,1.067,0,0,0-.253-1.5,7.094,7.094,0,0,0-4.171-1.307c-3.181,0-5.2,1.518-5.224,3.879-.042,2.129,1.327,3.373,4.382,5.018,2.465,1.307,3.033,2.15,3.012,3.2-.021,1.2-1.011,1.919-2.549,1.919a5.243,5.243,0,0,1-3.413-1.307A.99.99,0,0,0,185.135,4.977Zm17.779,3.2a4.982,4.982,0,0,0,3.918-1.455.984.984,0,0,0-.042-1.434,1.006,1.006,0,0,0-1.369,0,3.155,3.155,0,0,1-2.3.864c-1.727-.042-2.781-1.286-2.8-3.774,0-2.4,1.053-3.8,2.8-3.8a2.958,2.958,0,0,1,2.17.886.994.994,0,0,0,1.453.042.972.972,0,0,0,.042-1.392,4.972,4.972,0,0,0-3.813-1.539c-3.434,0-5.6,2.277-5.6,5.882C197.374,6.094,199.438,8.181,202.914,8.181Zm8.068-13.135a1.662,1.662,0,0,0,1.727-1.687,1.66,1.66,0,0,0-1.727-1.729,1.719,1.719,0,0,0-1.769,1.729A1.724,1.724,0,0,0,210.982-4.954Zm0,13.135a1.29,1.29,0,0,0,1.453-1.413V-1.812a1.29,1.29,0,0,0-1.453-1.413,1.284,1.284,0,0,0-1.432,1.413V6.769A1.284,1.284,0,0,0,210.982,8.181Zm9.479-11.617c-3.455,0-5.561,2.319-5.561,6.093,0,3.753,2.233,5.524,5.645,5.524A5.121,5.121,0,0,0,224.7,6.6a.912.912,0,0,0-.063-1.307.97.97,0,0,0-1.306.063,3.679,3.679,0,0,1-2.633.907c-1.791,0-2.717-.949-2.886-3.163h6a1.456,1.456,0,0,0,1.664-1.6A4.817,4.817,0,0,0,220.461-3.436ZM222.568,1.2h-4.7c.253-1.708,1.116-2.783,2.591-2.783A2.3,2.3,0,0,1,222.778.992.189.189,0,0,1,222.568,1.2ZM233.9-3.415a3.785,3.785,0,0,0-3.5,1.961v-.654a1.161,1.161,0,0,0-1.327-1.286,1.2,1.2,0,0,0-1.348,1.307V6.769a1.443,1.443,0,0,0,2.886,0V.8A2.72,2.72,0,0,1,233.1-1.454c1.159,0,1.854.886,1.854,2.446V6.769a1.433,1.433,0,0,0,2.865,0V.76C237.819-1.9,236.155-3.415,233.9-3.415Zm11.649,11.6a4.982,4.982,0,0,0,3.918-1.455.984.984,0,0,0-.042-1.434,1.006,1.006,0,0,0-1.369,0,3.155,3.155,0,0,1-2.3.864c-1.727-.042-2.781-1.286-2.8-3.774,0-2.4,1.053-3.8,2.8-3.8a2.958,2.958,0,0,1,2.17.886.994.994,0,0,0,1.454.042.972.972,0,0,0,.042-1.392,4.972,4.972,0,0,0-3.813-1.539c-3.434,0-5.6,2.277-5.6,5.882C240.009,6.094,242.074,8.181,245.55,8.181ZM256.8-3.436c-3.455,0-5.561,2.319-5.561,6.093,0,3.753,2.233,5.524,5.645,5.524a5.121,5.121,0,0,0,4.15-1.581.912.912,0,0,0-.063-1.307.97.97,0,0,0-1.306.063,3.679,3.679,0,0,1-2.633.907c-1.791,0-2.717-.949-2.886-3.163h6a1.456,1.456,0,0,0,1.664-1.6A4.817,4.817,0,0,0,256.8-3.436ZM258.9,1.2h-4.7c.253-1.708,1.116-2.783,2.591-2.783A2.3,2.3,0,0,1,259.115.992.189.189,0,0,1,258.9,1.2Zm27.532,6.979a1.265,1.265,0,0,0,1.39-1.392V-5.818c0-1.307-.611-2.108-1.812-2.108a2.182,2.182,0,0,0-2.254,1.75c-1.18,3.247-2.738,7.569-3.813,10.394h-.084c-1.116-2.783-2.907-7.464-4.108-10.394-.506-1.244-1.011-1.729-2.064-1.729A1.886,1.886,0,0,0,271.754-5.8V6.79a1.329,1.329,0,1,0,2.654,0V-.927c0-.78-.126-2.319-.211-2.931l.147-.042c1.18,3.394,2.781,7.442,3.792,9.8a1.743,1.743,0,0,0,1.748,1.265c.8,0,1.222-.358,1.6-1.265,1.053-2.4,2.633-6.388,3.707-9.783l.147.042a25.627,25.627,0,0,0-.274,2.931v7.7A1.259,1.259,0,0,0,286.437,8.181Zm13.292-11.6a1.271,1.271,0,0,0-1.411,1.392v5.8c-.232.991-1.138,2.4-2.507,2.4-1.264,0-1.791-.759-1.791-2.488V-2a1.3,1.3,0,0,0-1.453-1.413A1.284,1.284,0,0,0,291.134-2V4.091c0,2.593,1.475,4.069,4.023,4.069A3.6,3.6,0,0,0,298.549,6.3v.633a1.19,1.19,0,0,0,1.306,1.244,1.16,1.16,0,0,0,1.285-1.265V-2.023A1.271,1.271,0,0,0,299.729-3.415ZM303.6,5.525a1.047,1.047,0,0,0,.19,1.455,6.386,6.386,0,0,0,4.108,1.2c2.275,0,4.318-.97,4.318-3.247,0-1.708-1.306-2.678-3.581-3.69-1.559-.7-2.191-1.075-2.191-1.687,0-.569.59-.991,1.517-.991A3.758,3.758,0,0,1,310.2-.8a1.1,1.1,0,0,0,1.517-.169,1.009,1.009,0,0,0-.19-1.37,5.608,5.608,0,0,0-3.644-1.075c-2.528,0-4.276,1.244-4.276,3.057,0,1.708,1.285,2.635,3.413,3.563,1.664.738,2.275,1.244,2.275,1.9,0,.738-.548,1.1-1.706,1.1a4.841,4.841,0,0,1-2.654-.864A.935.935,0,0,0,303.6,5.525Zm15.757-8.96c-3.455,0-5.561,2.319-5.561,6.093,0,3.753,2.233,5.524,5.645,5.524A5.121,5.121,0,0,0,323.6,6.6a.912.912,0,0,0-.063-1.307.97.97,0,0,0-1.306.063,3.679,3.679,0,0,1-2.633.907c-1.791,0-2.717-.949-2.886-3.163h6a1.456,1.456,0,0,0,1.664-1.6A4.817,4.817,0,0,0,319.361-3.436ZM321.468,1.2h-4.7c.253-1.708,1.116-2.783,2.591-2.783A2.3,2.3,0,0,1,321.678.992.189.189,0,0,1,321.468,1.2Zm13.566-4.617a1.271,1.271,0,0,0-1.411,1.392v5.8c-.232.991-1.138,2.4-2.507,2.4-1.264,0-1.791-.759-1.791-2.488V-2a1.3,1.3,0,0,0-1.453-1.413A1.284,1.284,0,0,0,326.439-2V4.091c0,2.593,1.475,4.069,4.023,4.069A3.6,3.6,0,0,0,333.854,6.3v.633a1.19,1.19,0,0,0,1.306,1.244,1.16,1.16,0,0,0,1.285-1.265V-2.023A1.271,1.271,0,0,0,335.034-3.415Zm17,0a3.748,3.748,0,0,0-3.37,1.729,3.428,3.428,0,0,0-3.2-1.729,3.357,3.357,0,0,0-3.16,1.771v-.422a1.222,1.222,0,0,0-1.369-1.328A1.271,1.271,0,0,0,339.521-2V6.769a1.443,1.443,0,0,0,2.886,0V.633A2.665,2.665,0,0,1,344.66-1.5c1.053-.021,1.664.738,1.664,2.129V6.79a1.422,1.422,0,0,0,2.844,0V.38a2.483,2.483,0,0,1,2.17-1.9c1.1-.021,1.706.759,1.706,2.172V6.79a1.262,1.262,0,0,0,1.411,1.392,1.278,1.278,0,0,0,1.432-1.392V.507A3.574,3.574,0,0,0,352.033-3.415Z" transform="translate(-0.374 70.605)" fill="#343a40"/>
    <path id="路径_170936" data-name="路径 170936" d="M45.466-16.372H38.71v-4.186c0-1.986-1.233-3.166-3.432-3.166s-3.432,1.181-3.432,3.166v4.186H25.841a2.771,2.771,0,0,0-3.056,2.254,4.1,4.1,0,0,0-.429-.59,27.961,27.961,0,0,0-5.9-4.991,2.806,2.806,0,0,0-1.823-3.971,3.173,3.173,0,0,0-4.4,2.039A41.017,41.017,0,0,1,1.82-7.034a1.6,1.6,0,0,0-.161,2.2c.536.7,1.287.8,2.2.161.751-.483,1.555-1.073,2.306-1.664A3.291,3.291,0,0,0,5.627-4.3v23.13l-.858.161c-2.306.376-3.164,1.771-2.681,3.81S4.072,25.542,6.163,24.9a53.892,53.892,0,0,0,11.528-5.1c.268.859.59,1.717.858,2.522.643,2.039,2.038,2.683,3.753,1.825,1.769-.859,2.252-2.308,1.34-4.132a31.616,31.616,0,0,0-5.952-8.1,1.517,1.517,0,0,0-2.2-.322,1.589,1.589,0,0,0-.536,2.2c.483.859.912,1.825,1.394,2.791l-4.826,1.127V9.656h7.721A2.857,2.857,0,0,0,22.41,6.49V-4.3a2.857,2.857,0,0,0-3.164-3.166H15.814l.161-.107c1.287-.859,1.769-2.039.751-3.274A18.747,18.747,0,0,0,13.4-14.333c.483-.751,1.019-1.556,1.448-2.361a42.575,42.575,0,0,1,3.271,5.045c1.019,1.717,2.359,2.039,3.807,1.02a5.689,5.689,0,0,0,.8-.8v2.9a2.446,2.446,0,0,0,2.52,2.791,5.088,5.088,0,0,0-.214,1.4V24.468c0,1.556,1.126,2.522,3.11,2.522,1.93,0,3.056-.966,3.056-2.522V22.375h9.6v2.039c0,1.61,1.072,2.469,3,2.469,1.984,0,3.056-.859,3.056-2.469V12.071a2.825,2.825,0,0,0-3.11-3.113H31.2v-3.7H42.3a2.841,2.841,0,0,0,3.164-3.113V-4.351a6.612,6.612,0,0,0-.107-1.073h.268c1.93,0,2.949-.859,2.949-2.791v-5.045A2.8,2.8,0,0,0,45.466-16.372ZM28.576-7.463a3.23,3.23,0,0,0,.161-1.073v-3.381a.62.62,0,0,1,.643-.644H41.927a.62.62,0,0,1,.643.644v3.7a3.3,3.3,0,0,0,.054.751H28.576ZM12.7-8.59a3.136,3.136,0,0,0,.858,1.127H8.737a3.578,3.578,0,0,0-1.609.322,40.4,40.4,0,0,0,4.182-4.347Zm3.914,5.42V-.862H11.525V-3.17a.62.62,0,0,1,.643-.644h3.807A.62.62,0,0,1,16.619-3.17ZM39.461.855a.62.62,0,0,1-.643.644H31.2V-3.063a.62.62,0,0,1,.643-.644h6.971a.62.62,0,0,1,.643.644ZM16.619,5.309a.62.62,0,0,1-.643.644h-4.45V2.733h5.094Zm23.539,7.406a.62.62,0,0,1,.643.644v5.313H31.2V12.715Z" transform="translate(306.867 23.941)" fill="#229b96"/>
    <path id="路径_170937" data-name="路径 170937" d="M21.039-13.3A19.214,19.214,0,0,0,25.7-16.032c.7.644,1.287,1.288,1.823,1.825a1.886,1.886,0,0,0,3-.054c.912-.912.8-1.986-.268-3.005a14.283,14.283,0,0,0-1.662-1.4,16.911,16.911,0,0,0,1.287-1.61,1.917,1.917,0,0,0-.536-3.059,2.189,2.189,0,0,0-3.164.912,11.329,11.329,0,0,1-.965,1.449,26.252,26.252,0,0,0-3.432-1.771c-.858-.322-1.448-.161-1.823.483a1.285,1.285,0,0,0,.429,1.825,32.441,32.441,0,0,1,2.681,2.039A23.742,23.742,0,0,1,19.7-15.549a1.213,1.213,0,0,0-.483,1.771C19.591-13.134,20.181-12.973,21.039-13.3ZM5.65,7.527c2.038,0,3.164-1.02,3.164-2.9v-3.6A.62.62,0,0,1,9.457.39H40.932a.62.62,0,0,1,.643.644V4.576c0,1.878,1.126,2.844,3.164,2.844S47.9,6.454,47.9,4.576V-.04a2.8,2.8,0,0,0-3.11-3.113h-1.18c.322-4.83.59-10.143.8-15.563a2.8,2.8,0,0,0-3.11-3.166h-8.1a1.665,1.665,0,0,0-1.823,1.825,1.706,1.706,0,0,0,1.823,1.878H37.93a.592.592,0,0,1,.643.644c0,.644-.054,1.342-.054,1.986H33.533a1.651,1.651,0,0,0-1.769,1.825,1.635,1.635,0,0,0,1.769,1.771h4.879c-.054.805-.107,1.61-.107,2.415H33.479A1.61,1.61,0,0,0,31.71-7.768a1.651,1.651,0,0,0,1.769,1.825H38.09L37.93-3.152H20.771l.214-.054A19.918,19.918,0,0,0,25.7-5.836c.7.644,1.341,1.288,1.877,1.825a1.828,1.828,0,0,0,3-.054c.912-.912.8-1.986-.268-3.005a11.407,11.407,0,0,0-1.716-1.4,16.454,16.454,0,0,0,1.287-1.556c.912-1.234.643-2.361-.483-3.005a2.042,2.042,0,0,0-3.11.8c-.322.483-.7.966-1.019,1.5a29.626,29.626,0,0,0-3.485-1.717,1.36,1.36,0,0,0-1.823.483,1.346,1.346,0,0,0,.429,1.878c.751.483,1.662,1.181,2.574,1.878A20.034,20.034,0,0,1,19.645-5.46a1.15,1.15,0,0,0-.483,1.717,1.142,1.142,0,0,0,.643.59H12.353c0-.912-.054-1.878-.054-2.791h4.665a1.626,1.626,0,0,0,1.769-1.825,1.61,1.61,0,0,0-1.769-1.771H12.192c-.054-.8-.054-1.61-.107-2.415H16.91a1.61,1.61,0,0,0,1.769-1.771,1.651,1.651,0,0,0-1.769-1.825H11.977c0-.644,0-1.342-.054-1.986a21.275,21.275,0,0,0,5.63-1.556,2.154,2.154,0,0,0,.912-3.435c-.912-1.234-2.359-1.288-3.7-.322a27.5,27.5,0,0,1-3.593,2.361,2.888,2.888,0,0,0-2.145-.751c-1.877.054-2.9.966-2.842,2.9C6.347-13.3,6.562-8.2,6.723-3.152H5.65A2.818,2.818,0,0,0,2.487-.04V4.629C2.487,6.508,3.613,7.527,5.65,7.527Zm41.234,4.347H29.4v-.483A25.83,25.83,0,0,0,37.179,7.9c1.769-1.127,2.252-2.522,1.716-3.864-.483-1.342-1.662-1.878-3.432-1.878H13A1.667,1.667,0,0,0,11.12,3.932,1.681,1.681,0,0,0,13,5.756h18.07c.59,0,.8.429.268.805a16.069,16.069,0,0,1-2.842,1.771,3.719,3.719,0,0,0-2.52-.751c-2.2,0-3.378,1.073-3.378,3.113v1.181H3.613a1.7,1.7,0,0,0-1.877,1.878,1.737,1.737,0,0,0,1.877,1.932H22.594v3.649c0,2.254-.483,2.522-6.81,1.717-1.18-.161-1.716.215-1.984,1.127a1.6,1.6,0,0,0,1.072,2.147c8.686,3.649,14.531,2.039,14.531-3.81v-4.83h17.48a1.737,1.737,0,0,0,1.877-1.932A1.7,1.7,0,0,0,46.884,11.874Z" transform="translate(230.672 24.192)" fill="#9ac14e"/>
    <path id="路径_170938" data-name="路径 170938" d="M23.2,6.3c1.394-1.127,1.5-2.522.214-4.079a36.507,36.507,0,0,0-6.756-5.689V-5.936h5.094a1.713,1.713,0,0,0,1.877-1.932,1.674,1.674,0,0,0-1.877-1.878H16.657v-6.547a41.141,41.141,0,0,0,4.29-1.342c2.252-.805,2.681-2.522,1.609-4.4-1.019-1.825-2.842-2.093-4.826-.966A48.246,48.246,0,0,1,3.789-17.9c-1.18.215-1.609.912-1.5,1.825.107,1.02.751,1.5,1.877,1.5,1.769-.054,3.861-.268,6.059-.537v5.367H3.735A1.674,1.674,0,0,0,1.858-7.868,1.713,1.713,0,0,0,3.735-5.936H9.311a62.506,62.506,0,0,1-7.775,19.7c-.536.966-.59,1.825.161,2.469.8.644,1.609.537,2.467-.376A33.541,33.541,0,0,0,10.223,5.709V23.527c0,1.878,1.126,2.9,3.217,2.9s3.217-1.02,3.217-2.9v-22c.858,1.288,1.716,2.683,2.413,3.918C20.2,7.427,21.751,7.588,23.2,6.3ZM50.224,7.8a1.835,1.835,0,0,0-2.252-1.771l-4.129.59V-20.373c0-1.932-1.18-3.059-3.271-3.059-2.145,0-3.324,1.127-3.324,3.059V7.48c-5.255.7-10.563,1.4-15.872,2.039a1.922,1.922,0,0,0-1.823,2.254,1.936,1.936,0,0,0,2.2,1.986c5.2-.644,10.349-1.342,15.5-2.039v11.7c0,1.932,1.18,3.059,3.324,3.059,2.091,0,3.271-1.127,3.271-3.059V10.808c1.5-.161,3.056-.376,4.558-.59A2.046,2.046,0,0,0,50.224,7.8ZM29.848-8.673c1.287,2.039,2.949,2.254,4.558.859,1.555-1.4,1.609-3.005,0-4.615a30.238,30.238,0,0,0-7.453-5.528,1.558,1.558,0,0,0-2.145.268,1.588,1.588,0,0,0,0,2.2A65.574,65.574,0,0,1,29.848-8.673Zm-6.113,5.9A59.177,59.177,0,0,1,28.776,4.1c1.287,2.039,2.9,2.254,4.5.859,1.555-1.4,1.609-3.005.054-4.615A31.491,31.491,0,0,0,25.88-5.239a1.689,1.689,0,0,0-2.2.322A1.577,1.577,0,0,0,23.735-2.77Z" transform="translate(153.521 24.185)" fill="#ff9138"/>
    <path id="路径_170939" data-name="路径 170939" d="M4.284-4.426h41.77a1.658,1.658,0,0,0,1.877-1.825,1.658,1.658,0,0,0-1.877-1.825H34.1a27.136,27.136,0,0,0,2.2-2.63c.965-1.288.965-2.63.054-3.488h7.239a1.642,1.642,0,0,0,1.823-1.825,1.626,1.626,0,0,0-1.823-1.771H28.842v-2.63c0-2.147-1.341-3.381-3.646-3.381-2.413,0-3.7,1.234-3.7,3.381v2.63H6.8a1.626,1.626,0,0,0-1.823,1.771A1.642,1.642,0,0,0,6.8-14.194h5.9a1.774,1.774,0,0,0,.268,1.5c1.019,1.449,2.145,3.113,3,4.615H4.284A1.681,1.681,0,0,0,2.407-6.251,1.706,1.706,0,0,0,4.284-4.426Zm16.193-6.6a29.579,29.579,0,0,0-3.7-3.166H31.952a2.474,2.474,0,0,0-.483.912,47.382,47.382,0,0,1-2.252,5.206H21.228A2.645,2.645,0,0,0,20.477-11.027Zm26.6,32.254H28.681V18.758H42.944a1.681,1.681,0,0,0,1.823-1.878,1.626,1.626,0,0,0-1.823-1.771H28.681V12.693H39.512a2.779,2.779,0,0,0,3.11-3.113V.833a2.8,2.8,0,0,0-3.11-3.113H10.879A2.825,2.825,0,0,0,7.769.833V9.581a2.8,2.8,0,0,0,3.11,3.113H21.711v2.415H7.5a1.626,1.626,0,0,0-1.823,1.771A1.681,1.681,0,0,0,7.5,18.758H21.711v2.469H3.587A1.681,1.681,0,0,0,1.764,23.1a1.665,1.665,0,0,0,1.823,1.825H47.073A1.706,1.706,0,0,0,48.95,23.1,1.747,1.747,0,0,0,47.073,21.226ZM14.257,1.906a.62.62,0,0,1,.643-.644h6.81V3.57H14.257Zm14.424-.644h6.81a.62.62,0,0,1,.643.644V3.57H28.681ZM14.9,9.151a.62.62,0,0,1-.643-.644V6.844h7.453V9.151Zm13.78-2.308h7.453V8.507a.62.62,0,0,1-.643.644h-6.81Z" transform="translate(77.498 24.07)" fill="#fd373d"/>
    <path id="路径_170940" data-name="路径 170940" d="M49.219,10.519a1.714,1.714,0,0,0-1.877-1.664c-1.019,0-1.609.644-1.609,1.878-.161,6.494-.429,7.46-2.574,7.621a28.07,28.07,0,0,1-6.005,0c-1.823-.161-2.252-.751-2.252-2.469V5.474h5.952c1.984,0,3.11-1.127,3.11-3.22V-16.261a2.882,2.882,0,0,0-3.11-3.22H28.736A1.731,1.731,0,0,0,26.86-17.5a1.8,1.8,0,0,0,1.877,2.039h7.721a.691.691,0,0,1,.7.751v5.367H29.487A1.737,1.737,0,0,0,27.61-7.406,1.778,1.778,0,0,0,29.487-5.42h7.668V.7a.665.665,0,0,1-.643.7H14.634a.665.665,0,0,1-.643-.7V-5.42h7.775c1.18,0,1.823-.7,1.823-1.986a1.7,1.7,0,0,0-1.823-1.932H13.991v-4.669a32.108,32.108,0,0,0,9.169-3.381c1.984-1.181,2.681-3.005,1.34-4.991-1.287-1.932-3.914-1.878-5.63-.161a40.639,40.639,0,0,1-5.576,4.562,3.208,3.208,0,0,0-2.681-1.073c-2.2,0-3.432,1.181-3.432,3.381V2.254c0,2.093,1.126,3.22,3.11,3.22H16.4c-.965,8.855-4.558,14.168-13.941,18.3A1.6,1.6,0,0,0,1.39,25.867a1.576,1.576,0,0,0,2.145,1.02c13.083-3.059,18.66-11,19.893-21.413h4.558v11.86c0,5.474,1.448,7.138,7.024,7.46a65.341,65.341,0,0,0,9.169,0C50.453,24.418,51.1,21.091,49.219,10.519Z" transform="translate(0.467 24.044)" fill="#d6336c"/>
  </g>
</svg>
