<svg id="wave-t" xmlns="http://www.w3.org/2000/svg" width="1366" height="17.489" viewBox="0 0 1366 17.489">
  <path id="路径_170969" data-name="路径 170969" d="M620.99-5.178C584.334-6.5,544.973-9.055,501.27-12.856c-63.135-5.429-77.085-6.2-100.93-5.506-17.011.388-31.745,1.939-59.789,6.282-18.72,2.792-24.628,3.49-39.5,4.343-23.631,1.474-40.358.233-85.413-6.127-38.222-5.351-60.5-5.972-99.293-2.482-23.133,2.016-43.632,2.016-77.584,0C-3.807-18.9-.035-18.517-.035-20.689V-22.55h1365.9v1.861c0,2.249,1.708,2.016-30.606,4.033-34.948,2.172-61.569,2.327-83.99.31-39.29-3.412-61.711-2.87-99.649,2.482-44.913,6.36-61.64,7.6-85.271,6.127-15.019-.853-20.926-1.551-39.646-4.343-28.044-4.343-42.778-5.894-59.789-6.282-23.916-.7-35.091-.078-105.343,5.894C785.34-6.031,770.464-5.41,693.592-5.178,657.22-5.022,624.549-5.022,620.99-5.178Z" transform="translate(0.12 22.55)" fill="#fff"/>
</svg>
