<svg xmlns="http://www.w3.org/2000/svg" width="1366" height="18.779" viewBox="0 0 1366 18.779">
  <path id="wave-b" d="M620.99-22.425c-36.656,1.416-76.018,4.164-119.721,8.245-63.135,5.829-77.085,6.662-100.93,5.913-17.011-.416-31.745-2.082-59.789-6.746-18.72-3-24.628-3.748-39.5-4.664-23.631-1.582-40.358-.25-85.413,6.579-38.222,5.746-60.5,6.412-99.293,2.665-23.133-2.165-43.632-2.165-77.584,0C-3.807-7.685-.035-8.1-.035-5.769v2h1365.9v-2c0-2.415,1.708-2.165-30.606-4.33-34.948-2.332-61.569-2.5-83.99-.333-39.29,3.664-61.711,3.081-99.649-2.665-44.913-6.829-61.64-8.161-85.271-6.579-15.019.916-20.926,1.666-39.646,4.664-28.044,4.664-42.778,6.329-59.789,6.746-23.916.75-35.091.083-105.343-6.329-76.231-6.912-91.107-7.578-167.979-7.828C657.22-22.592,624.549-22.592,620.99-22.425Z" transform="translate(0.12 22.55)" fill="#fff"/>
</svg>
